<svg width="13" height="11" viewBox="0 0 13 11" fill="none" xmlns="http://www.w3.org/2000/svg">
<path d="M12.7992 0.301152C12.6405 0.106931 12.4026 0 12.1295 0C11.981 0 11.8237 0.0312461 11.662 0.0930438L0.657795 4.2942C0.0738117 4.51709 -0.0048395 4.85157 0.000218767 5.03111C0.00527704 5.21065 0.102773 5.54017 0.698459 5.72973C0.70203 5.73082 0.7056 5.73191 0.709171 5.73291L2.99174 6.3862L4.22616 9.91651C4.39447 10.3978 4.77226 10.6968 5.21223 10.6968C5.48964 10.6968 5.76249 10.5805 6.00132 10.3607L7.41317 9.06056L9.46098 10.7097C9.46118 10.7099 9.46148 10.71 9.46168 10.7102L9.48112 10.7258C9.4829 10.7272 9.48479 10.7287 9.48657 10.7301C9.71419 10.9067 9.96264 10.9999 10.2053 11H10.2054C10.6796 11 11.0572 10.649 11.1672 10.1058L12.9702 1.20173C13.0426 0.844338 12.9819 0.524537 12.7992 0.301152ZM3.75534 6.26211L8.15912 4.01209L5.41704 6.92611C5.37211 6.97382 5.34027 7.03225 5.3246 7.09583L4.79586 9.23782L3.75534 6.26211ZM5.48528 9.80025C5.46703 9.81701 5.44868 9.83199 5.43033 9.84578L5.92088 7.85873L6.81322 8.57739L5.48528 9.80025ZM12.2237 1.05046L10.4207 9.9546C10.4033 10.0398 10.3479 10.2381 10.2053 10.2381C10.1349 10.2381 10.0465 10.1997 9.9559 10.13L7.63544 8.26136C7.63514 8.26106 7.63475 8.26076 7.63435 8.26056L6.25364 7.1486L10.219 2.93455C10.346 2.79965 10.3575 2.59303 10.2463 2.44483C10.135 2.29663 9.93338 2.25001 9.76845 2.33433L3.24644 5.66665L0.932826 5.00463L11.9337 0.80476C12.0266 0.769248 12.0915 0.761809 12.1295 0.761809C12.1528 0.761809 12.1942 0.764586 12.2096 0.783532C12.2298 0.808231 12.2556 0.892447 12.2237 1.05046Z" fill="#009344"/>
</svg>
