<svg width="11" height="11" viewBox="0 0 11 11" fill="none" xmlns="http://www.w3.org/2000/svg">
<path d="M9.45888 1.58824C8.39476 0.529412 7.03504 0 5.55709 0C2.54207 0 0.059118 2.41176 0.059118 5.47059C0.059118 6.41176 0.29559 7.41177 0.768534 8.23529L0 11L2.89678 10.2941C3.66532 10.7647 4.6112 10.9412 5.49797 10.9412C8.51299 10.9412 10.9959 8.52941 10.9959 5.47059C11.0551 4.05882 10.4639 2.64706 9.45888 1.58824ZM5.55709 10.0588C4.72944 10.0588 3.90179 9.82353 3.19237 9.41177L3.07414 9.29412L1.3006 9.76471L1.77354 8.11765L1.6553 8C1.24148 7.23529 1.00501 6.41176 1.00501 5.52941C0.945888 3.05882 3.01502 0.941177 5.55709 0.941177C6.79857 0.941177 7.92181 1.41176 8.80858 2.29412C9.63623 3.11765 10.1683 4.29412 10.1683 5.52941C10.1683 8 8.09917 10.0588 5.55709 10.0588ZM8.09916 6.64706C7.98093 6.58823 7.27151 6.23529 7.15328 6.17647C7.03504 6.11765 6.91681 6.11765 6.85769 6.23529C6.73945 6.35294 6.50298 6.70588 6.38474 6.76471C6.26651 6.88235 6.26651 6.88235 6.08915 6.82353C5.9118 6.76471 5.55709 6.58824 4.96591 6.11765C4.55209 5.76471 4.2565 5.29412 4.19738 5.17647C4.07914 5.05882 4.19738 4.94118 4.2565 4.88235C4.31561 4.82353 4.37473 4.76471 4.49297 4.64706C4.55209 4.58824 4.6112 4.52941 4.6112 4.47059C4.67032 4.35294 4.67032 4.35294 4.6112 4.23529C4.6112 4.11765 4.31561 3.47059 4.19738 3.17647C4.07914 2.94118 3.96091 2.94118 3.90179 2.94118C3.78355 2.94118 3.78355 2.94118 3.66532 2.94118C3.54708 2.94118 3.36973 3 3.25149 3.11765C3.13325 3.23529 2.77855 3.58824 2.77855 4.29412C2.77855 5 3.31061 5.64706 3.31061 5.70588C3.36973 5.82353 4.2565 7.17647 5.67533 7.76471C5.97092 7.88235 6.26651 8 6.44386 8.05882C6.73945 8.17647 7.09416 8.17647 7.27151 8.11765C7.50799 8.05882 8.09917 7.76471 8.2174 7.47059C8.33564 7.17647 8.33564 6.88235 8.33564 6.82353C8.27652 6.76471 8.15828 6.70588 8.09916 6.64706Z" fill="#009344"/>
</svg>
