<svg width="13" height="11" fill="none" xmlns="http://www.w3.org/2000/svg"><path d="M12.8.301A.844.844 0 0012.13 0c-.149 0-.306.031-.468.093L.658 4.294c-.584.223-.663.558-.658.737.005.18.103.51.698.699.004 0 .008.002.011.003l2.283.653 1.234 3.53c.168.482.546.78.986.78.278 0 .55-.115.79-.335l1.411-1.3 2.048 1.649.02.016.006.004c.227.177.476.27.718.27.475 0 .852-.351.962-.894l1.803-8.904c.073-.358.012-.677-.17-.9zM3.754 6.262l4.404-2.25-2.742 2.914a.38.38 0 00-.092.17l-.53 2.142-1.04-2.976zM5.485 9.8a.722.722 0 01-.055.046l.49-1.987.893.718L5.485 9.8zm6.739-8.75L10.42 9.955c-.018.085-.073.283-.216.283a.444.444 0 01-.25-.108l-2.32-1.869-1.381-1.112 3.965-4.214a.38.38 0 00-.45-.6L3.245 5.666.933 5.005l11-4.2a.558.558 0 01.197-.043c.023 0 .064.003.08.022.02.024.046.108.014.266z" fill="#009344"/></svg>