<svg width="11" height="11" fill="none" xmlns="http://www.w3.org/2000/svg"><path d="M9.459 1.588C8.395.53 7.035 0 5.557 0 2.542 0 .06 2.412.06 5.47c0 .942.237 1.942.71 2.765L0 11l2.897-.706c.768.47 1.714.647 2.601.647 3.015 0 5.498-2.412 5.498-5.47.06-1.412-.532-2.824-1.537-3.883zm-3.902 8.47a4.757 4.757 0 01-2.365-.646l-.118-.118-1.773.47.473-1.646L1.655 8c-.414-.765-.65-1.588-.65-2.47C.945 3.058 3.015.94 5.557.94c1.242 0 2.365.47 3.252 1.353.827.824 1.36 2 1.36 3.235 0 2.471-2.07 4.53-4.612 4.53zM8.1 6.649c-.118-.06-.827-.413-.946-.472-.118-.058-.236-.058-.295.06-.119.117-.355.47-.473.529-.118.117-.118.117-.296.059-.177-.06-.532-.236-1.123-.706a3.689 3.689 0 01-.769-.942c-.118-.117 0-.235.06-.294l.236-.235c.06-.059.118-.118.118-.176.06-.118.06-.118 0-.236 0-.117-.295-.764-.414-1.059-.118-.235-.236-.235-.295-.235h-.237a.64.64 0 00-.414.177c-.118.117-.472.47-.472 1.176s.532 1.353.532 1.412c.059.118.946 1.47 2.364 2.059.296.117.592.235.769.294.295.117.65.117.828.059.236-.06.827-.353.945-.647.119-.295.119-.589.119-.647-.06-.06-.178-.118-.237-.177z" fill="#009344"/></svg>