<svg width="19" height="19" fill="none" xmlns="http://www.w3.org/2000/svg"><path d="M2.375 2.969V.594a.593.593 0 111.188 0v2.375a.593.593 0 11-1.188 0zm10.094.594a.593.593 0 00.594-.594V.594a.593.593 0 10-1.188 0v2.375c0 .328.266.594.594.594zM19 14.25a4.75 4.75 0 11-9.5 0 4.75 4.75 0 019.5 0zm-1.187 0a3.567 3.567 0 00-3.563-3.563 3.566 3.566 0 00-3.562 3.563 3.566 3.566 0 003.562 3.563 3.566 3.566 0 003.563-3.563zM4.75 7.125H2.375V9.5H4.75V7.125zm-2.375 5.938H4.75v-2.376H2.375v2.376zM5.937 9.5h2.376V7.125H5.937V9.5zm0 3.563h2.376v-2.376H5.937v2.376zm-4.75 1.069V5.937H14.25v2.376h1.188V3.68c0-.721-.576-1.306-1.287-1.306h-.495v.594a1.19 1.19 0 01-1.187 1.187A1.19 1.19 0 0111.28 2.97v-.594H4.156v.594c0 .654-.532 1.187-1.187 1.187A1.19 1.19 0 011.78 2.97v-.594h-.494A1.295 1.295 0 000 3.681v10.45c0 .72.576 1.307 1.287 1.307h7.026V14.25H1.287c-.054 0-.1-.056-.1-.118zM11.876 9.5V7.125H9.5V9.5h2.375zm4.156 4.75H14.25v-1.781a.593.593 0 10-1.187 0v2.375c0 .328.265.594.593.594h2.375a.594.594 0 100-1.188z" fill="#009344"/></svg>