<svg width="19" height="16" fill="none" xmlns="http://www.w3.org/2000/svg"><path d="M17.654 1.292C16.756.43 15.515 0 13.932 0c-.438 0-.886.075-1.341.224-.456.15-.88.35-1.273.604-.392.254-.73.491-1.012.714a9.743 9.743 0 00-.806.708 9.756 9.756 0 00-.806-.708c-.283-.223-.62-.46-1.012-.714A5.47 5.47 0 006.409.224 4.298 4.298 0 005.068 0C3.485 0 2.244.43 1.347 1.292.449 2.152 0 3.347 0 4.875c0 .465.083.945.25 1.437.165.493.354.914.566 1.26.212.348.453.687.721 1.016.27.33.465.558.589.683.124.125.22.215.291.27l6.616 6.271A.64.64 0 009.5 16c.184 0 .34-.063.467-.187l6.605-6.25C18.191 7.972 19 6.41 19 4.874c0-1.528-.449-2.722-1.346-3.583z" fill="#FE0101"/></svg>