<svg width="20" height="20" fill="none" xmlns="http://www.w3.org/2000/svg"><path d="M15.647 0H4.353C1.946 0 0 1.962 0 4.381v11.237C0 18.038 1.946 20 4.353 20h11.294C18.05 20 20 18.038 20 15.618V4.381C20 1.962 18.05 0 15.647 0zm2.028 13.234a4.46 4.46 0 01-4.446 4.456H6.771a4.46 4.46 0 01-4.447-4.456V6.762a4.454 4.454 0 014.447-4.456h6.458a4.454 4.454 0 014.447 4.456v6.472z" fill="#fff" fill-opacity=".2"/><path d="M10 7.274a2.725 2.725 0 00-2.722 2.728 2.723 2.723 0 105.444 0A2.728 2.728 0 0010 7.274z" fill="#fff" fill-opacity=".2"/><path d="M13.225 3.252H6.771a3.512 3.512 0 00-3.503 3.514v6.472a3.517 3.517 0 003.503 3.514h6.458a3.512 3.512 0 003.503-3.514V6.762a3.517 3.517 0 00-3.507-3.51zM10 13.668a3.66 3.66 0 01-3.658-3.67 3.66 3.66 0 117.32.004A3.67 3.67 0 0110 13.668zm4.197-7.094a.783.783 0 01-.78-.782c0-.43.35-.781.78-.781.429 0 .78.352.78.781 0 .43-.351.782-.78.782z" fill="#fff" fill-opacity=".2"/></svg>