<svg width="20" height="20" fill="none" xmlns="http://www.w3.org/2000/svg"><path d="M9.506 7.44a.42.42 0 00.24.062A.413.413 0 0010 7.44a.188.188 0 00.096-.172V5.827c0-.062-.041-.11-.096-.137a.52.52 0 00-.247-.055.405.405 0 00-.233.055.15.15 0 00-.09.137v1.441c-.007.069.02.13.076.172zm-1.023 6.307a.805.805 0 01-.206.13.528.528 0 01-.185.056.173.173 0 01-.137-.041.206.206 0 01-.041-.124v-1.894h-.66v2.059a.47.47 0 00.117.336c.096.082.22.124.343.11.13 0 .261-.028.385-.082a1.29 1.29 0 00.377-.227v.268h.66l.006-2.464h-.659v1.873zm-3.095-2.059h.631v2.615h.611v-2.615h.625l.006-.446H5.388v.446z" fill="#fff" fill-opacity=".2"/><path d="M10 0C4.475 0 0 4.475 0 10s4.475 10 10 10 10-4.475 10-10S15.518 0 10 0zm1.441 7.55V5.01h.59v2.334a.22.22 0 00.042.158.13.13 0 00.116.048.344.344 0 00.165-.062.821.821 0 00.179-.165V5.01h.59v3.034h-.59v-.336a1.126 1.126 0 01-.344.281c-.116.062-.233.13-.343.13a.377.377 0 01-.302-.164.642.642 0 01-.103-.405zm-2.69-1.798a.635.635 0 01.281-.543c.186-.137.44-.199.755-.199.254-.013.501.062.707.213a.65.65 0 01.275.55v1.516a.728.728 0 01-.268.59 1.157 1.157 0 01-.741.24 1.084 1.084 0 01-.728-.254.739.739 0 01-.274-.597V5.752H8.75zM7 3.754l.48 1.75h.055l.46-1.75h.755l-.865 2.56v1.82h-.748V6.396l-.892-2.643H7zm8.38 9.884c0 1.09-.92 1.976-2.052 1.976H6.19c-1.133 0-2.052-.885-2.052-1.976V11.97c0-1.091.92-1.977 2.052-1.977h7.138c1.132 0 2.052.886 2.052 1.977v1.668z" fill="#fff" fill-opacity=".2"/><path d="M11.627 12.601a.525.525 0 00-.165-.425c-.11-.096-.268-.144-.474-.144a.905.905 0 00-.302.054c-.103.042-.192.09-.281.158v-.995h-.659v3.095h.659v-.171a.921.921 0 00.275.158c.11.034.226.048.343.048.192 0 .343-.041.439-.13a.455.455 0 00.15-.371l.015-1.277zm-.666 1.201a.196.196 0 01-.055.158.252.252 0 01-.172.048l-.158-.027a.534.534 0 01-.15-.083v-1.42l.137-.069.137-.02c.069 0 .144.02.2.061.047.048.075.11.068.172v1.18h-.007zm2.526-.185c0 .137-.021.226-.062.268a.318.318 0 01-.22.062.295.295 0 01-.213-.07.433.433 0 01-.061-.26v-.446h1.208v-.604a.603.603 0 00-.234-.515c-.158-.117-.384-.178-.672-.178-.282 0-.515.061-.694.192a.577.577 0 00-.267.5v1.065a.653.653 0 00.247.535c.165.13.384.192.672.192.316 0 .55-.062.714-.185.158-.124.24-.309.24-.55V13.5h-.652v.117h-.006zm-.467-1.263a.279.279 0 01.22-.062.3.3 0 01.212.062.305.305 0 01.069.213v.24h-.563v-.247a.229.229 0 01.062-.206z" fill="#fff" fill-opacity=".2"/></svg>