<svg width="68" height="65" viewBox="0 14.13 71.36 64.86" fill="none" xmlns="http://www.w3.org/2000/svg">
    <g>
        <path d="M10.1739 57.1588C10.1739 59.824 11.2885 61.3991 13.5178 61.8843H0C1.89457 61.4054 3.01237 59.8303 3.3534 57.1588V18.9678C3.3534 16.2207 2.2577 14.6078 0.0663098 14.1289H13.5841C11.9042 14.488 10.7675 16.0411 10.1739 18.7882V32.199C10.1739 37.5482 17.6006 37.4537 21.9392 37.8128C17.5627 38.3232 10.117 38.4838 10.1739 44.2016V57.1588Z" fill="#17562F"></path>
        <path d="M39.4925 53.9363C43.0146 58.3389 48.1054 61.2137 53.7018 61.9601C52.6157 62.1555 51.5174 62.2755 50.4147 62.3192C44.0511 62.5549 37.8526 60.2691 33.1724 55.961C28.4923 51.6529 25.7106 45.6724 25.4347 39.3252C25.2637 36.0732 25.7819 32.8217 26.9555 29.783C28.1291 26.7443 29.9317 23.9866 32.2457 21.6899C34.4764 19.3159 37.1873 17.442 40.1988 16.1923C43.2102 14.9426 46.4535 14.3457 49.7137 14.441C44.7463 15.8665 40.4278 18.966 37.4937 23.2114C34.5216 27.5506 33.091 32.7575 33.4298 38.0021C33.5907 43.8438 35.7273 49.4596 39.4925 53.9363ZM60.7685 43.3229C60.7685 40.3365 59.5939 38.566 57.2446 38.0115H71.3592C70.698 38.2744 70.0975 38.6689 69.5942 39.171C69.091 39.6731 68.6956 40.2722 68.4321 40.9319C68.1264 41.6461 67.8854 42.3862 67.7121 43.1434V64.6158C67.7121 67.6401 66.0986 70.7526 62.8715 73.9533C59.6799 77.1376 55.3639 78.9462 50.8504 78.9906C52.1892 78.8727 53.4897 78.4833 54.6723 77.8463C55.8549 77.2092 56.8946 76.338 57.7277 75.2859C58.5732 74.2938 59.2777 73.1903 59.8212 72.0064C60.3041 69.5639 60.6206 67.0915 60.7685 64.6063V43.3229ZM60.418 16.7659C62.468 17.8534 64.2159 19.4309 65.5053 21.3573C66.7947 23.2836 67.5855 25.4987 67.8069 27.8046L67.7121 14.441H54.0238C56.2714 14.8506 58.4333 15.6367 60.418 16.7659Z" fill="#17562F"></path>
    </g>
</svg>
