<svg width="356" height="79" viewBox="0 0 356 79" fill="none" xmlns="http://www.w3.org/2000/svg">
<g clip-path="url(#clip0)">
<path d="M10.1739 57.1588C10.1739 59.824 11.2885 61.3991 13.5178 61.8843H0C1.89457 61.4054 3.01237 59.8303 3.3534 57.1588V18.9678C3.3534 16.2207 2.2577 14.6078 0.0663098 14.1289H13.5841C11.9042 14.488 10.7675 16.0411 10.1739 18.7882V32.199C10.1739 37.5482 17.6006 37.4537 21.9392 37.8128C17.5627 38.3232 10.117 38.4838 10.1739 44.2016V57.1588Z" fill="#17562F"/>
<path d="M39.4925 53.9363C43.0146 58.3389 48.1054 61.2137 53.7018 61.9601C52.6157 62.1555 51.5174 62.2755 50.4147 62.3192C44.0511 62.5549 37.8526 60.2691 33.1724 55.961C28.4923 51.6529 25.7106 45.6724 25.4347 39.3252C25.2637 36.0732 25.7819 32.8217 26.9555 29.783C28.1291 26.7443 29.9317 23.9866 32.2457 21.6899C34.4764 19.3159 37.1873 17.442 40.1988 16.1923C43.2102 14.9426 46.4535 14.3457 49.7137 14.441C44.7463 15.8665 40.4278 18.966 37.4937 23.2114C34.5216 27.5506 33.091 32.7575 33.4298 38.0021C33.5907 43.8438 35.7273 49.4596 39.4925 53.9363ZM60.7685 43.3229C60.7685 40.3365 59.5939 38.566 57.2446 38.0115H71.3592C70.698 38.2744 70.0975 38.6689 69.5942 39.171C69.091 39.6731 68.6956 40.2722 68.4321 40.9319C68.1264 41.6461 67.8854 42.3862 67.7121 43.1434V64.6158C67.7121 67.6401 66.0986 70.7526 62.8715 73.9533C59.6799 77.1376 55.3639 78.9462 50.8504 78.9906C52.1892 78.8727 53.4897 78.4833 54.6723 77.8463C55.8549 77.2092 56.8946 76.338 57.7277 75.2859C58.5732 74.2938 59.2777 73.1903 59.8212 72.0064C60.3041 69.5639 60.6206 67.0915 60.7685 64.6063V43.3229ZM60.418 16.7659C62.468 17.8534 64.2159 19.4309 65.5053 21.3573C66.7947 23.2836 67.5855 25.4987 67.8069 27.8046L67.7121 14.441H54.0238C56.2714 14.8506 58.4333 15.6367 60.418 16.7659Z" fill="#17562F"/>
<path d="M218.264 57.7164V57.7731C218.309 58.2341 218.241 58.6992 218.064 59.1275C217.887 59.5559 217.608 59.9345 217.251 60.2304C216.432 60.8361 215.427 61.137 214.409 61.0809C213.869 61.1018 213.33 61.0101 212.828 60.8115C212.326 60.613 211.87 60.312 211.491 59.9279C211.111 59.5256 210.816 59.0517 210.623 58.534C210.429 58.0163 210.341 57.4652 210.364 56.9131V54.7583C210.342 54.2077 210.43 53.6583 210.624 53.1422C210.817 52.6261 211.112 52.1538 211.491 51.7529C211.87 51.3688 212.326 51.0678 212.828 50.8693C213.33 50.6708 213.869 50.579 214.409 50.5999C215.427 50.5438 216.432 50.8447 217.251 51.4505C217.603 51.7499 217.878 52.1293 218.053 52.557C218.228 52.9846 218.297 53.4478 218.255 53.9077V53.9644H217.307C217.338 53.613 217.286 53.2594 217.156 52.9314C217.026 52.6034 216.822 52.31 216.559 52.0742C215.948 51.6221 215.196 51.4011 214.437 51.4505C214.028 51.4387 213.622 51.5173 213.247 51.6807C212.871 51.8441 212.537 52.0882 212.268 52.3956C211.702 53.0463 211.407 53.8882 211.444 54.7488V56.8753C211.406 57.7418 211.701 58.59 212.268 59.2475C212.538 59.5543 212.872 59.798 213.247 59.9614C213.622 60.1247 214.028 60.2037 214.437 60.1926C215.194 60.2441 215.944 60.0301 216.559 59.5877C216.82 59.3506 217.022 59.0567 217.15 58.7288C217.278 58.401 217.329 58.0481 217.298 57.6975H218.245" fill="#17562F"/>
<path d="M241.596 60.013H246.654V60.9014H240.544V50.7417H241.596V60.013Z" fill="#17562F"/>
<path d="M269.418 50.7417H268.376V60.9109H269.418V50.7417Z" fill="#17562F"/>
<path d="M300.356 60.9014H299.314L293.176 52.4145L293.119 52.4334V60.9014H292.067V50.7417H293.119L299.267 59.2192L299.314 59.2002V50.7417H300.356V60.9014Z" fill="#17562F"/>
<path d="M324.086 50.7417H323.044V60.9109H324.086V50.7417Z" fill="#17562F"/>
<path d="M354.257 57.7167V57.7734C354.302 58.2345 354.233 58.6995 354.056 59.1278C353.88 59.5562 353.601 59.9349 353.243 60.2307C352.424 60.8357 351.419 61.1365 350.401 61.0812C349.862 61.1021 349.323 61.0104 348.821 60.8118C348.318 60.6133 347.863 60.3123 347.484 59.9282C347.104 59.5259 346.809 59.052 346.615 58.5343C346.422 58.0166 346.334 57.4655 346.357 56.9134V54.7586C346.334 54.208 346.423 53.6586 346.616 53.1425C346.81 52.6264 347.105 52.1541 347.484 51.7532C347.863 51.3691 348.318 51.0682 348.821 50.8696C349.323 50.6711 349.862 50.5793 350.401 50.6002C351.419 50.545 352.424 50.8458 353.243 51.4508C353.596 51.7502 353.871 52.1296 354.046 52.5573C354.22 52.9849 354.29 53.4481 354.247 53.908V53.9647H353.3C353.331 53.6134 353.279 53.2597 353.149 52.9317C353.019 52.6037 352.815 52.3103 352.552 52.0745C351.941 51.6225 351.189 51.4014 350.43 51.4508C350.021 51.439 349.614 51.5177 349.239 51.681C348.864 51.8444 348.53 52.0885 348.261 52.3959C347.695 53.0466 347.4 53.8885 347.436 54.7491V56.8756C347.399 57.7421 347.694 58.5903 348.261 59.2478C348.53 59.5551 348.864 59.7992 349.239 59.9626C349.614 60.126 350.021 60.2046 350.43 60.1929C351.186 60.2452 351.937 60.0312 352.552 59.588C352.813 59.3513 353.016 59.0575 353.144 58.7295C353.272 58.4016 353.322 58.0484 353.291 57.6978H354.238" fill="#17562F"/>
<path d="M122.977 32.029C122.977 35.6392 122.977 38.6446 123.167 40.1945C123.28 41.2814 123.508 42.0847 124.635 42.2643C125.197 42.344 125.763 42.3944 126.33 42.4155C126.558 42.4155 126.634 42.5289 126.634 42.6423C126.634 42.7557 126.444 42.9447 126.027 42.9447C123.953 42.9447 121.575 42.8313 121.386 42.8313C121.196 42.8313 118.818 42.9447 117.691 42.9447C117.274 42.9447 117.085 42.8691 117.085 42.6423C117.085 42.4155 117.161 42.4155 117.388 42.4155C117.771 42.4026 118.152 42.352 118.525 42.2643C119.283 42.1131 119.472 41.3192 119.624 40.1945C119.813 38.6162 119.813 35.6392 119.813 32.029V28.0785C119.814 28.0483 119.81 28.0183 119.799 27.9901C119.788 27.962 119.771 27.9365 119.75 27.9151C119.728 27.8938 119.703 27.8771 119.674 27.8662C119.646 27.8553 119.616 27.8503 119.586 27.8517H103.586C103.555 27.8468 103.523 27.8493 103.494 27.859C103.464 27.8687 103.437 27.8853 103.415 27.9074C103.392 27.9295 103.376 27.9565 103.366 27.9863C103.356 28.016 103.354 28.0476 103.359 28.0785V32.029C103.359 35.6392 103.359 38.6446 103.548 40.1945C103.662 41.2814 103.889 42.0847 105.016 42.2643C105.579 42.344 106.145 42.3944 106.712 42.4155C106.939 42.4155 107.015 42.5289 107.015 42.6423C107.015 42.7557 106.826 42.9447 106.409 42.9447C104.334 42.9447 101.957 42.8313 101.767 42.8313C101.578 42.8313 99.2001 42.9447 98.0729 42.9447C97.6561 42.9447 97.4666 42.8691 97.4666 42.6423C97.4666 42.4155 97.5424 42.4155 97.7697 42.4155C98.1496 42.402 98.5271 42.3514 98.897 42.2643C99.6548 42.1131 99.8443 41.3192 99.9959 40.1945C100.185 38.6162 100.185 35.6392 100.185 32.029V25.4133C100.185 19.5443 100.185 18.4858 100.11 17.2856C100.034 16.0853 99.7306 15.3954 98.4897 15.1402C98.0678 15.0636 97.6397 15.0257 97.2108 15.0268C97.0593 15.0268 96.9077 14.9512 96.9077 14.8C96.9077 14.6488 97.0972 14.4976 97.514 14.4976C99.2096 14.4976 101.587 14.611 101.777 14.611C101.966 14.611 104.344 14.4976 105.471 14.4976C105.888 14.4976 106.077 14.5732 106.077 14.8C106.077 15.0268 105.926 15.0268 105.774 15.0268C105.456 15.0376 105.139 15.0755 104.827 15.1402C103.813 15.3292 103.51 15.9719 103.435 17.2856C103.359 18.5992 103.359 19.5443 103.359 25.4133V26.2072C103.354 26.2381 103.356 26.2697 103.366 26.2994C103.376 26.3292 103.392 26.3562 103.415 26.3783C103.437 26.4004 103.464 26.417 103.494 26.4267C103.523 26.4364 103.555 26.4389 103.586 26.434H119.586C119.617 26.4389 119.648 26.4364 119.678 26.4267C119.708 26.417 119.735 26.4004 119.757 26.3783C119.779 26.3562 119.796 26.3292 119.806 26.2994C119.815 26.2697 119.818 26.2381 119.813 26.2072V25.4133C119.813 19.5443 119.813 18.4858 119.737 17.2856C119.662 16.0853 119.358 15.3954 118.117 15.1402C117.696 15.0636 117.267 15.0257 116.839 15.0268C116.687 15.0268 116.536 14.9512 116.536 14.8C116.536 14.6488 116.725 14.4976 117.142 14.4976C118.837 14.4976 121.215 14.611 121.405 14.611C121.594 14.611 123.972 14.4976 125.099 14.4976C125.516 14.4976 125.705 14.5732 125.705 14.8C125.705 15.0268 125.554 15.0268 125.402 15.0268C125.084 15.0376 124.767 15.0755 124.455 15.1402C123.441 15.3292 123.138 15.9719 123.062 17.2856C122.987 18.5992 122.987 19.5443 122.987 25.4133V32.029" fill="#3E7D44"/>
<path d="M139.052 33.6546C139.052 36.745 139.052 39.259 139.204 40.5821C139.318 41.5272 139.431 42.1226 140.416 42.2738C140.915 42.3524 141.418 42.4029 141.923 42.425C141.958 42.4237 141.993 42.4296 142.026 42.4424C142.058 42.4553 142.088 42.4747 142.113 42.4996C142.138 42.5244 142.157 42.5541 142.17 42.5868C142.183 42.6195 142.189 42.6545 142.188 42.6896C142.188 42.8408 142.036 42.9543 141.657 42.9543C139.763 42.9543 137.66 42.8408 137.508 42.8408C137.357 42.8408 135.244 42.9543 134.231 42.9543C133.89 42.9543 133.7 42.8786 133.7 42.6896C133.699 42.6545 133.705 42.6195 133.718 42.5868C133.73 42.5541 133.75 42.5244 133.775 42.4996C133.8 42.4747 133.83 42.4553 133.862 42.4424C133.895 42.4296 133.93 42.4237 133.965 42.425C134.311 42.412 134.654 42.3613 134.988 42.2738C135.633 42.1226 135.746 41.5177 135.86 40.5821C136.011 39.2684 136.049 36.745 136.049 33.6546V27.984C136.049 23.0129 136.049 22.115 135.974 21.0943C135.898 20.0736 135.633 19.516 134.913 19.3648C134.579 19.2983 134.24 19.2604 133.899 19.2514C133.83 19.247 133.765 19.2177 133.716 19.169C133.668 19.1203 133.638 19.0555 133.634 18.9868C133.634 18.7978 133.785 18.7222 134.164 18.7222C135.263 18.7222 137.338 18.7978 137.518 18.7978C137.698 18.7978 139.82 18.7222 140.843 18.7222C141.222 18.7222 141.373 18.7978 141.373 18.9868C141.362 19.053 141.331 19.1141 141.283 19.1616C141.236 19.2091 141.174 19.2405 141.108 19.2514C140.828 19.2449 140.548 19.2703 140.274 19.327C139.327 19.516 139.175 19.9697 139.1 21.0943C139.024 22.219 139.1 22.9845 139.1 27.984V33.6546" fill="#3E7D44"/>
<path d="M166.675 34.7794C166.675 32.1804 166.6 31.8023 165.245 31.5472C164.868 31.5018 164.488 31.4765 164.108 31.4716C164.042 31.4606 163.981 31.4292 163.933 31.3817C163.885 31.3343 163.854 31.2732 163.843 31.2069C163.843 30.9801 163.995 30.9423 164.373 30.9423C165.88 30.9423 168.106 31.0179 168.295 31.0179C168.485 31.0179 170.521 30.9423 171.544 30.9423C171.923 30.9423 172.075 30.9423 172.075 31.2069C172.064 31.2732 172.032 31.3343 171.985 31.3817C171.937 31.4292 171.876 31.4606 171.81 31.4716C171.533 31.4657 171.256 31.4911 170.986 31.5472C170.038 31.6984 169.82 32.1898 169.735 33.3145C169.65 34.4391 169.735 35.2708 169.735 36.6223V40.2042C169.735 41.6691 169.735 41.7069 169.28 41.9337C167.058 42.9105 164.651 43.3973 162.223 43.3608C159.694 43.3608 154.976 43.0583 151.282 39.9396C150.023 38.7795 149.02 37.3699 148.338 35.8011C147.657 34.2323 147.31 32.5388 147.322 30.8289C147.252 28.7492 147.726 26.6871 148.698 24.8459C149.669 23.0047 151.105 21.4479 152.864 20.329C155.563 18.8529 158.618 18.1497 161.693 18.297C163.404 18.3152 165.11 18.4924 166.789 18.8263C167.67 19.023 168.568 19.1369 169.47 19.1665C169.811 19.1665 169.887 19.3177 169.887 19.4689C169.887 19.9226 169.697 20.7921 169.697 23.9865C169.697 24.5157 169.546 24.6669 169.318 24.6669C169.091 24.6669 169.091 24.4779 169.091 24.1755C169.011 23.4225 168.751 22.6997 168.333 22.0679C167.499 20.8677 164.98 19.5823 160.679 19.5823C158.192 19.4321 155.732 20.1653 153.735 21.6521C151.841 23.117 150.458 25.9806 150.458 29.7042C150.44 32.9951 151.7 36.1651 153.972 38.5503C155.099 39.6462 156.433 40.5073 157.897 41.0833C159.361 41.6594 160.925 41.9388 162.498 41.9053C163.721 41.9693 164.944 41.7628 166.079 41.3005C166.495 41.0737 166.761 40.9224 166.761 40.3554V34.7794" fill="#3E7D44"/>
<path d="M200.332 33.6548C200.332 36.7452 200.332 39.2591 200.522 40.5823C200.635 41.5273 200.711 42.1227 201.725 42.274C202.211 42.3522 202.701 42.4027 203.193 42.4252C203.231 42.4197 203.269 42.4225 203.306 42.4333C203.343 42.4442 203.377 42.4628 203.406 42.4879C203.434 42.5131 203.457 42.5441 203.473 42.579C203.489 42.6138 203.496 42.6516 203.496 42.6898C203.496 42.841 203.307 42.9544 202.928 42.9544C201.118 42.9544 199.006 42.841 198.816 42.841C198.627 42.841 196.515 42.9544 195.539 42.9544C195.16 42.9544 195.008 42.8788 195.008 42.6898C195.007 42.6547 195.013 42.6197 195.026 42.587C195.039 42.5543 195.058 42.5246 195.083 42.4997C195.108 42.4749 195.138 42.4555 195.171 42.4426C195.203 42.4298 195.238 42.4239 195.274 42.4252C195.594 42.4093 195.912 42.3586 196.221 42.274C196.903 42.1227 197.017 41.4801 197.168 40.5445C197.32 39.2308 197.32 36.8208 197.32 33.7304V30.5265C197.32 30.3753 197.244 30.3375 197.13 30.3375H183.281C183.167 30.3375 183.092 30.3375 183.092 30.5265V33.7209C183.092 36.8113 183.092 39.2591 183.243 40.5728C183.357 41.5179 183.47 42.1133 184.446 42.2645C184.945 42.3431 185.448 42.3936 185.952 42.4157C185.988 42.4144 186.023 42.4203 186.055 42.4332C186.088 42.446 186.118 42.4654 186.143 42.4903C186.168 42.5151 186.187 42.5448 186.2 42.5775C186.213 42.6102 186.219 42.6452 186.218 42.6804C186.218 42.8316 186.066 42.945 185.687 42.945C183.793 42.945 181.727 42.8316 181.576 42.8316C181.424 42.8316 179.274 42.945 178.251 42.945C177.91 42.945 177.72 42.8694 177.72 42.6804C177.719 42.6452 177.725 42.6102 177.738 42.5775C177.751 42.5448 177.77 42.5151 177.795 42.4903C177.82 42.4654 177.85 42.446 177.883 42.4332C177.915 42.4203 177.95 42.4144 177.986 42.4157C178.331 42.4027 178.674 42.352 179.009 42.2645C179.653 42.1133 179.729 41.5084 179.88 40.5728C180.065 38.2686 180.129 35.9562 180.07 33.6453V27.9748C180.07 23.0036 180.07 22.1058 179.994 21.0851C179.918 20.0644 179.729 19.469 178.639 19.3177C178.262 19.2723 177.883 19.2471 177.503 19.2421C177.436 19.2312 177.375 19.1998 177.327 19.1523C177.28 19.1049 177.248 19.0437 177.237 18.9775C177.237 18.7885 177.389 18.7129 177.768 18.7129C179.274 18.7129 181.386 18.7885 181.557 18.7885C181.727 18.7885 183.821 18.7129 184.835 18.7129C185.213 18.7129 185.365 18.7885 185.365 18.9775C185.354 19.0437 185.323 19.1049 185.275 19.1523C185.227 19.1998 185.166 19.2312 185.1 19.2421C184.82 19.2357 184.54 19.261 184.266 19.3177C183.319 19.5068 183.177 19.9604 183.101 21.0851C183.025 22.2097 183.101 23.0792 183.101 28.0504V28.7308C183.101 28.9199 183.177 28.9199 183.29 28.9199H197.14C197.253 28.9199 197.329 28.9199 197.329 28.7308V28.0504C197.329 23.0792 197.329 22.1058 197.253 21.0851C197.178 20.0644 197.026 19.469 195.937 19.3177C195.559 19.2724 195.18 19.2472 194.8 19.2421C194.731 19.2377 194.666 19.2084 194.617 19.1597C194.569 19.111 194.539 19.0462 194.535 18.9775C194.535 18.7885 194.686 18.7129 195.065 18.7129C196.534 18.7129 198.684 18.7885 198.854 18.7885C199.025 18.7885 201.156 18.7129 202.132 18.7129C202.511 18.7129 202.7 18.7885 202.7 18.9775C202.688 19.0494 202.65 19.1148 202.595 19.1629C202.54 19.211 202.47 19.239 202.397 19.2421C202.117 19.2372 201.838 19.2625 201.564 19.3177C200.692 19.5068 200.512 19.9604 200.436 21.0851C200.361 22.2097 200.361 22.9752 200.361 27.9748V33.6453" fill="#3E7D44"/>
<path d="M235.638 40.4309C235.638 41.4421 235.638 41.5177 235.145 41.7823C232.692 43.0582 228.997 43.474 226.051 43.474C216.806 43.474 208.621 39.1077 208.621 28.7212C208.553 26.2811 209.123 23.8655 210.274 21.7114C211.425 19.5574 213.118 17.739 215.186 16.435C218.257 14.6529 221.783 13.8023 225.331 13.9873C227.554 14.0262 229.77 14.2284 231.962 14.5921C232.948 14.7911 233.944 14.93 234.946 15.008C235.401 15.008 235.477 15.197 235.477 15.4616C235.263 17.5115 235.175 19.5724 235.212 21.633C235.212 22.2379 235.098 22.4269 234.795 22.4269C234.492 22.4269 234.454 22.2379 234.416 21.9355C234.343 20.7843 233.894 19.6888 233.137 18.8167C232 17.6164 228.988 15.8774 224.725 15.8774C222.03 15.7025 219.365 16.5346 217.251 18.2118C215.138 19.9791 213.774 22.8049 213.774 27.4359C213.774 35.5258 218.947 41.6122 226.904 41.6122C227.991 41.6834 229.082 41.5421 230.115 41.1964C230.367 41.0684 230.573 40.8643 230.702 40.6132C230.831 40.3621 230.878 40.0767 230.835 39.7977V36.2158C230.835 34.3256 230.835 32.8985 230.835 31.7738C230.835 30.4885 230.456 29.8837 229.215 29.6285C228.73 29.5447 228.239 29.5067 227.747 29.5151C227.406 29.5151 227.178 29.4395 227.178 29.2127C227.178 28.9858 227.444 28.8346 227.974 28.8346C229.935 28.8346 232.313 28.948 233.44 28.948C234.567 28.948 236.613 28.8346 237.854 28.8346C238.347 28.8346 238.612 28.9102 238.612 29.2127C238.612 29.5151 238.385 29.5151 238.12 29.5151C237.776 29.5236 237.434 29.5615 237.097 29.6285C236.074 29.8175 235.704 30.4602 235.666 31.7738C235.666 32.8985 235.666 34.4106 235.666 36.2914V40.4309" fill="#17562F"/>
<path d="M244.817 28.0031C244.817 23.1453 244.817 22.2475 244.817 21.2268C244.817 20.2061 244.438 19.7997 243.386 19.4973C242.962 19.4133 242.53 19.3753 242.098 19.3839C241.719 19.3839 241.53 19.2705 241.53 19.0436C241.53 18.8168 241.757 18.7412 242.25 18.7412C244.021 18.7412 246.247 18.8168 247.232 18.8168C248.066 18.8168 250.292 18.7412 251.495 18.7412C251.988 18.7412 252.215 18.8168 252.215 19.0436C252.215 19.2705 252.026 19.3839 251.685 19.3839C251.366 19.389 251.048 19.4271 250.737 19.4973C249.866 19.6485 249.601 20.1021 249.525 21.2268C249.449 22.3515 249.449 23.117 249.449 28.0031V32.4828C249.449 37.1515 250.396 38.9567 251.978 40.2325C253.18 41.1361 254.663 41.5879 256.165 41.5084C257.814 41.5467 259.412 40.9395 260.618 39.8167C262.512 38.0872 262.512 35.2992 262.512 32.0292V28.0031C262.512 23.1453 262.512 22.2475 262.436 21.2268C262.361 20.2061 262.095 19.7997 261.044 19.4973C260.648 19.4174 260.245 19.3794 259.841 19.3839C259.462 19.3839 259.272 19.2705 259.272 19.0436C259.272 18.8168 259.5 18.7412 259.954 18.7412C261.65 18.7412 263.876 18.8168 263.914 18.8168C264.293 18.8168 266.519 18.7412 267.798 18.7412C268.253 18.7412 268.48 18.8168 268.48 19.0436C268.48 19.2705 268.291 19.3839 267.912 19.3839C267.593 19.3892 267.275 19.4273 266.964 19.4973C266.017 19.6485 265.837 20.1021 265.761 21.2268C265.686 22.3515 265.686 23.117 265.686 28.0031V31.4243C265.686 35.0062 265.307 38.7677 262.512 41.0642C260.503 42.6947 257.955 43.5142 255.37 43.3608C253.636 43.3608 250.197 43.2852 247.791 41.1776C246.096 39.7127 244.769 37.3406 244.769 32.6718V27.9464" fill="#17562F"/>
<path d="M276.996 34.8926C276.807 34.8926 276.769 34.8926 276.693 35.1194L274.922 39.4101C274.644 40.0283 274.477 40.6905 274.429 41.3664C274.429 41.9335 274.732 42.3115 275.746 42.3115H276.21C276.627 42.3115 276.703 42.4627 276.703 42.6518C276.703 42.8408 276.513 42.992 276.172 42.992C275.083 42.992 273.529 42.8786 272.478 42.8786C272.137 42.8786 270.365 42.992 268.632 42.992C268.215 42.992 268.026 42.9164 268.026 42.6518C268.024 42.6033 268.033 42.5549 268.052 42.5102C268.07 42.4655 268.099 42.4255 268.135 42.393C268.171 42.3605 268.214 42.3364 268.261 42.3223C268.307 42.3082 268.356 42.3046 268.405 42.3115C268.708 42.3115 269.087 42.3115 269.352 42.3115C270.858 42.0847 271.426 41.1113 272.108 39.4763L280.786 19.3364C281.165 18.3913 281.43 18.0605 281.733 18.0605C282.225 18.0605 282.377 18.363 282.68 19.0718C283.476 20.8391 289.018 33.938 291.13 38.7958C292.409 41.6972 293.356 42.1036 293.972 42.217C294.385 42.2875 294.803 42.3255 295.222 42.3304C295.525 42.3304 295.677 42.4438 295.677 42.6707C295.677 42.9353 295.488 43.0109 294.247 43.0109C293.006 43.0109 290.656 43.0109 287.871 42.9353C287.265 42.9353 286.924 42.9353 286.924 42.6707C286.924 42.406 287 42.3682 287.341 42.3304C287.413 42.3097 287.479 42.2732 287.535 42.2236C287.591 42.1739 287.635 42.1124 287.664 42.0435C287.693 41.9747 287.707 41.9002 287.703 41.8255C287.7 41.7509 287.679 41.678 287.644 41.6122L285.077 35.1761C285.057 35.1037 285.011 35.0408 284.949 34.9992C284.886 34.9575 284.811 34.9398 284.736 34.9493H276.93L276.996 34.8926ZM284.092 33.1442C284.243 33.1442 284.281 33.0686 284.243 32.9551L281.108 24.8274C281.108 24.714 281.032 24.525 280.956 24.525C280.88 24.525 280.805 24.714 280.767 24.8274L277.555 32.9173C277.48 33.0686 277.555 33.1442 277.669 33.1442H284.092Z" fill="#17562F"/>
<path d="M302.488 28.0031C302.488 23.1453 302.488 22.2475 302.488 21.2268C302.488 20.2061 302.109 19.7997 301.057 19.4973C300.624 19.4124 300.182 19.3744 299.741 19.3839C299.4 19.3839 299.172 19.2705 299.172 19.0436C299.172 18.8168 299.438 18.7412 299.93 18.7412C301.664 18.7412 303.776 18.8168 304.458 18.8168C305.586 18.8168 308.607 18.7412 309.63 18.7412C311.743 18.7412 314.158 18.9302 315.93 20.0927C316.635 20.5964 317.213 21.2563 317.619 22.0204C318.024 22.7846 318.247 23.6322 318.27 24.4968C318.27 26.869 316.915 28.9765 313.666 31.5755C316.612 35.1858 318.952 38.0872 320.951 40.0813C322.845 41.9715 323.972 42.0755 324.493 42.1889C324.754 42.2479 325.022 42.2734 325.289 42.2645C325.389 42.2564 325.488 42.2874 325.566 42.3508C325.644 42.4143 325.694 42.5052 325.706 42.6047C325.706 42.8693 325.479 42.9449 325.062 42.9449H321.888C320.647 43.0467 319.4 42.8253 318.27 42.3023C316.839 41.584 315.589 40.0813 313.742 37.5768C312.425 35.8473 311.023 33.702 310.606 33.2105C310.528 33.1309 310.433 33.0694 310.328 33.0302C310.223 32.991 310.111 32.9751 310 32.9837L307.016 32.9081C306.98 32.9035 306.943 32.9071 306.909 32.9188C306.875 32.9304 306.844 32.9498 306.818 32.9754C306.792 33.0009 306.773 33.032 306.761 33.0662C306.75 33.1004 306.746 33.1369 306.751 33.1727V33.6264C306.751 36.5939 306.751 39.0795 306.94 40.4405C307.054 41.3856 307.205 41.981 308.219 42.1322C308.756 42.2048 309.297 42.2427 309.839 42.2456C309.939 42.2375 310.038 42.2685 310.116 42.3319C310.194 42.3954 310.244 42.4863 310.256 42.5858C310.256 42.8126 309.99 42.926 309.574 42.926C307.679 42.926 304.894 42.8126 304.401 42.8126C303.757 42.8126 301.645 42.926 300.328 42.926C299.911 42.926 299.684 42.8126 299.684 42.5858C299.684 42.359 299.798 42.2456 300.214 42.2456C300.606 42.2548 300.997 42.2167 301.38 42.1322C302.062 41.981 302.251 41.3761 302.327 40.4405C302.478 39.089 302.478 36.5656 302.478 33.6264V27.9558L302.488 28.0031ZM306.703 30.4414C306.703 30.7816 306.779 30.8951 307.006 31.0085C307.831 31.227 308.683 31.3289 309.536 31.3109C310.354 31.4293 311.188 31.2407 311.875 30.7816C312.602 30.2366 313.179 29.5183 313.555 28.6927C313.931 27.867 314.093 26.9605 314.026 26.0562C314.026 21.5387 310.928 20.3857 308.967 20.3857C308.312 20.3697 307.656 20.4076 307.006 20.4991C306.779 20.5747 306.703 20.6881 306.703 20.9527V30.4414Z" fill="#17562F"/>
<path d="M331.939 28.0031C331.939 23.1453 331.939 22.2475 331.939 21.2268C331.939 20.2061 331.56 19.7997 330.509 19.4973C330.075 19.4125 329.634 19.3744 329.192 19.3839C328.851 19.3839 328.624 19.2705 328.624 19.0436C328.624 18.8168 328.889 18.7412 329.381 18.7412C331.115 18.7412 333.227 18.8168 334.175 18.8168C335.122 18.8168 337.566 18.7412 339.574 18.7412C343.723 18.7412 349.312 18.7412 352.931 22.3893C353.971 23.4668 354.784 24.741 355.322 26.1369C355.861 27.5328 356.114 29.0221 356.066 30.517C356.089 32.1696 355.781 33.8101 355.159 35.3421C354.538 36.8742 353.616 38.2669 352.448 39.4387C350.942 40.9414 347.427 43.219 341.317 43.219C340.114 43.219 338.674 43.1056 337.358 43.03C336.041 42.9544 334.828 42.841 333.995 42.841C333.616 42.841 332.905 42.841 332.1 42.841C331.295 42.841 330.48 42.9166 329.798 42.9166C329.381 42.9166 329.154 42.8032 329.154 42.5764C329.154 42.3495 329.268 42.2361 329.685 42.2361C330.076 42.2452 330.467 42.2071 330.85 42.1227C331.532 41.9715 331.721 41.3666 331.797 40.431C331.949 39.0795 331.949 36.5561 331.949 33.6169V27.9464L331.939 28.0031ZM336.401 31.481C336.401 34.8644 336.401 37.3122 336.477 37.9549C336.452 38.7254 336.581 39.4931 336.855 40.2136C337.272 40.8185 338.589 41.4895 341.194 41.4895C344.216 41.4895 346.442 40.9603 348.441 39.3064C350.591 37.539 351.283 34.6754 351.283 31.3676C351.283 27.3037 349.663 24.6669 348.185 23.3911C345.586 21.2432 342.271 20.1529 338.902 20.3384C338.215 20.3141 337.529 20.3905 336.865 20.5652C336.726 20.5991 336.606 20.6845 336.529 20.8039C336.451 20.9234 336.422 21.0679 336.448 21.2079C336.448 22.3042 336.448 24.9315 336.448 27.4549L336.401 31.481Z" fill="#17562F"/>
<path d="M82.897 0V79" stroke="#17562F" stroke-width="1.29" stroke-miterlimit="2"/>
</g>
<defs>
<clipPath id="clip0">
<rect width="356" height="79" fill="white"/>
</clipPath>
</defs>
</svg>
