<svg width="68" height="65" viewBox="0 14.13 71.36 64.86" fill="none" xmlns="http://www.w3.org/2000/svg"><path d="M10.174 57.159c0 2.665 1.115 4.24 3.344 4.725H0c1.895-.479 3.012-2.054 3.353-4.725V18.968c0-2.747-1.095-4.36-3.287-4.84h13.518c-1.68.36-2.816 1.913-3.41 4.66V32.2c0 5.35 7.427 5.255 11.765 5.614-4.376.51-11.822.67-11.765 6.389V57.16zm29.318-3.223a21.904 21.904 0 0014.21 8.024 23.911 23.911 0 01-3.287.36 24.14 24.14 0 01-17.243-6.359 24.03 24.03 0 01-7.737-16.636 23.115 23.115 0 011.52-9.542 23.159 23.159 0 015.29-8.093 23.02 23.02 0 017.954-5.498 23.067 23.067 0 019.515-1.751 22.345 22.345 0 00-12.22 8.77 23.492 23.492 0 00-4.064 14.791 25.86 25.86 0 006.063 15.934zM60.77 43.323c0-2.986-1.175-4.757-3.524-5.312H71.36a5.24 5.24 0 00-2.927 2.92 12.978 12.978 0 00-.72 2.212v21.473c0 3.024-1.613 6.137-4.84 9.337a17.26 17.26 0 01-12.022 5.038 9.889 9.889 0 006.878-3.705 14.171 14.171 0 002.093-3.28 55 55 0 00.948-7.4V43.323zm-.351-26.557a14.036 14.036 0 015.087 4.591 13.995 13.995 0 012.302 6.448l-.095-13.364H54.024c2.247.41 4.41 1.196 6.394 2.325z" fill="#17562F"/></svg>