<svg width="79" height="61" xmlns="http://www.w3.org/2000/svg"><defs><clipPath id="a"><path fill="#fff" d="M0 0h79v60.352H0z"/></clipPath></defs><g clip-path="url(#a)" fill="#363"><path d="M63.971 19.152c-.43 2.35-1.214 4.895-2.585 7.324a20.2 20.2 0 01-2.741 3.72l-.118.118c-.039 0-.039.039-.078.039-1.214.548-2.546.9-3.995.94.04-.04.079-.079.118-.079 1.057-.783 1.997-1.605 2.82-2.506a7.766 7.766 0 001.88-1.136c.039-.039.078-.078.078-.117l.04-.04c.117-.078.234-.195.352-.274a8.013 8.013 0 002.506-5.796 7.74 7.74 0 00-.313-2.154 30.91 30.91 0 00.47-3.564 9.27 9.27 0 011.566 3.525z"/><path d="M64.401 15.47a12.567 12.567 0 00-1.958-2.546 24.526 24.526 0 00-.235-2.741c-.04-.274-.078-.392-.078-.431v-.196c0-4.19-3.368-7.598-7.52-7.637-4.112.9-8.303 1.37-12.533 1.332-4.543.039-9.047-.431-13.511-1.293a7.63 7.63 0 00-7.559 7.637v.157a32.1 32.1 0 000 9.086c.98 6.188 3.916 10.3 8.773 12.18a.968.968 0 01.548 1.254c-.157.352-.509.626-.9.626-.118 0-.236-.039-.353-.078-1.37-.548-2.585-1.214-3.603-1.997a14.816 14.816 0 01-1.998-1.802c-6.227-6.815-4.582-18.368-4.425-19.504C19.127 4.269 23.396 0 28.644 0c.078 0 .118 0 .196.04a75.495 75.495 0 0013.277 1.292c4.073 0 8.146-.431 12.14-1.293.079-.039.157-.039.236-.039 5.248 0 9.556 4.23 9.595 9.517.04.313.196 1.253.313 2.663.04.9.079 2.037 0 3.29z"/><path d="M58.684 33.367s0 .04 0 0c-.078.313-.117.627-.195.9-4.504 23.108-7.677 26.084-9.948 26.084-2.39 0-2.78-4.151-3.33-10.417-.508-5.601-1.252-14.021-4.033-14.021-2.624 0-3.133 7.598-3.525 13.12-.47 6.58-.783 11.318-3.642 11.318-5.327 0-10.105-18.76-10.614-30.94 0-.117 0-.274.079-.391a.931.931 0 01.861-.627c.548-.04.98.392 1.018.94.04.51.04 1.018.079 1.488a81.045 81.045 0 003.368 18.094c2.35 7.48 4.425 9.439 5.209 9.439 0 0 .509-.157.94-2.35.391-2.35.626-4.739.744-7.128.509-7.363 1.057-14.96 5.483-14.96 4.582 0 5.287 8.028 5.992 15.822.274 3.172.705 7.911 1.45 8.655.587-.117 3.446-1.88 7.754-23.616l.352-1.762c0-.118.079-.235.118-.314.47-.117.9-.235 1.331-.391.353.235.588.626.51 1.057z"/><path d="M67.927 21.266c0 2.82-.861 5.405-2.31 7.598v.039a9.47 9.47 0 01-1.214 1.528l-1.371-1.371c.43-.47.822-1.019 1.175-1.567 1.096-1.801 1.762-3.916 1.762-6.188 0-2.115-.548-4.112-1.566-5.835a12.576 12.576 0 00-1.959-2.546 11.646 11.646 0 00-8.185-3.33c-6.462 0-11.71 5.249-11.71 11.711 0 6.462 5.248 11.71 11.71 11.71.9 0 1.762-.078 2.585-.274.47-.117.9-.235 1.332-.392.352-.117.704-.274 1.057-.43 0 0 .04 0 .04-.04.587-.274 1.135-.626 1.683-.979l1.41 1.41c-.509.392-1.096.744-1.645 1.058h-.039a18.46 18.46 0 01-2.193.94 11.92 11.92 0 01-2.115.509 13.03 13.03 0 01-2.154.156c-7.559 0-13.669-6.148-13.669-13.668 0-7.559 6.15-13.668 13.669-13.668 2.976 0 5.718.94 7.95 2.585.784.587 1.528 1.214 2.154 1.958 2.272 2.389 3.603 5.6 3.603 9.086z"/><path d="M63.972 19.151c-.313-1.292-.823-2.506-1.606-3.564a9.85 9.85 0 00-8.107-4.23c-5.483 0-9.948 4.465-9.948 9.948 0 5.483 4.465 9.948 9.948 9.948h.235c1.45-.04 2.78-.392 3.995-.94.039 0 .039-.04.078-.04.783-.39 1.567-.9 2.193-1.448.079-.079.157-.118.235-.196.666-.627 1.254-1.293 1.724-2.076a9.683 9.683 0 001.527-5.248 7.92 7.92 0 00-.274-2.154zm-9.674 10.105c-4.386 0-7.99-3.603-7.99-7.99 0-4.386 3.565-7.95 7.951-7.95 3.642 0 6.736 2.467 7.676 5.835.196.705.314 1.41.314 2.154 0 2.272-.98 4.348-2.507 5.797a2.539 2.539 0 01-.352.313l-.118.117c-.548.47-1.175.823-1.88 1.136-.979.353-1.997.588-3.094.588z"/><path d="M61.74 26.436c-.118 0-.236 0-.353.039a3.029 3.029 0 00-1.645.626c-.118.079-.235.196-.353.275l-.039.039c-.039.039-.078.078-.078.117-.548.627-.862 1.37-.862 2.193 0 .196 0 .392.04.549.078-.04.156-.079.195-.118.744-.391 1.45-.822 2.037-1.37l.04-.04a.83.83 0 01.195-.156c.666-.627 1.253-1.293 1.723-2.076a5.495 5.495 0 00-.9-.078zm0 0c-.118 0-.236 0-.353.039a3.029 3.029 0 00-1.645.626c-.118.079-.235.196-.353.275l-.039.039c-.039.039-.078.078-.078.117-.548.627-.862 1.37-.862 2.193 0 .196 0 .392.04.549.078-.04.156-.079.195-.118.744-.391 1.45-.822 2.037-1.37l.04-.04a.83.83 0 01.195-.156c.666-.627 1.253-1.293 1.723-2.076a5.495 5.495 0 00-.9-.078zm0 0c-.118 0-.236 0-.353.039a3.029 3.029 0 00-1.645.626c-.118.079-.235.196-.353.275l-.039.039c-.039.039-.078.078-.078.117-.548.627-.862 1.37-.862 2.193 0 .196 0 .392.04.549.078-.04.156-.079.195-.118.744-.391 1.45-.822 2.037-1.37l.04-.04a.83.83 0 01.195-.156c.666-.627 1.253-1.293 1.723-2.076a5.495 5.495 0 00-.9-.078zm16.057 14.647l-13.59-13.59a11.681 11.681 0 01-1.175 1.567l13.394 13.394c.51.509.51 1.37 0 1.919-.509.509-1.41.509-1.919 0L60.995 30.86c-.548.392-1.136.744-1.723 1.018.04.079.117.118.157.196l1.292 1.293 12.415 12.415c.627.627 1.45.979 2.35.979.9 0 1.723-.352 2.35-.98 1.214-1.33 1.214-3.406-.04-4.699zM60.76 28.746c.04-.039.118-.117.196-.156.666-.627 1.253-1.293 1.723-2.076a6.494 6.494 0 00-.94-.078c-.117 0-.235 0-.352.039a3.029 3.029 0 00-1.645.626c-.118.079-.235.196-.353.275l-.039.039c-.039.039-.078.078-.078.117-.548.627-.862 1.37-.862 2.193 0 .196 0 .392.04.549.078-.04.156-.079.195-.118.744-.352 1.489-.822 2.115-1.41zm.98-2.31c-.118 0-.236 0-.353.039a3.029 3.029 0 00-1.645.626c-.118.079-.235.196-.353.275l-.039.039c-.039.039-.078.078-.078.117-.548.627-.862 1.37-.862 2.193 0 .196 0 .392.04.549.078-.04.156-.079.195-.118.744-.391 1.45-.822 2.037-1.37l.04-.04a.83.83 0 01.195-.156c.666-.627 1.253-1.293 1.723-2.076a5.495 5.495 0 00-.9-.078z"/></g></svg>