<svg width="79" height="64" fill="none" xmlns="http://www.w3.org/2000/svg"><g clip-path="url(#clip0)" fill="#363"><path d="M27.01 22.096l-1.78.97a19.645 19.645 0 01-.233-2.055l1.858-1.008c0 .698.038 1.395.154 2.093zm9.325 14.109a.954.954 0 01-.89.62c-.116 0-.232-.038-.348-.077-1.355-.543-2.554-1.202-3.56-1.977a14.64 14.64 0 01-1.974-1.783 14.962 14.962 0 01-1.973-2.752c-.31-.582-.62-1.163-.852-1.745l1.664-.891c.233.62.542 1.201.852 1.744 1.509 2.636 3.676 4.535 6.54 5.62.464.195.735.737.541 1.241zM43.997 6.9l.27.465c-.735-.04-1.509-.078-2.244-.156a80.47 80.47 0 01-7.468-1.046c-4.14.077-7.468 3.45-7.468 7.559v.155c-.116.853-.232 1.744-.271 2.636-.039.736-.077 1.473-.039 2.248l-1.896 1.008c-.038-.775-.038-1.512-.038-2.17.038-2.094.27-3.567.31-3.955.038-5.194 4.294-9.42 9.48-9.42h.193c2.244.427 4.527.776 6.81.97.658.077 1.277.116 1.935.155.039.542.155 1.085.426 1.55zM61.41 36.632c-.426.31-1.045.194-1.354-.232-.31-.427-.194-1.008.232-1.318 10.022-7.25 7.507-21.01 7.468-21.166v-.193c0-4.148-3.328-7.52-7.43-7.56-2.09.466-4.179.815-6.307 1.008-.697.078-1.393.117-2.09.194l-1.006-1.9c.697-.038 1.432-.077 2.129-.154 2.321-.194 4.643-.582 6.926-1.086.078-.038.155-.038.27-.038 5.186 0 9.443 4.186 9.481 9.42.194 1.434 2.36 15.311-8.32 23.025z"/><path d="M54.328 64c-2.36 0-2.747-4.109-3.289-10.31-.503-5.544-1.238-13.879-3.985-13.879-2.593 0-3.096 7.52-3.483 12.986C43.107 59.31 42.797 64 39.972 64c-5.262 0-9.983-18.568-10.486-30.623-.039-.543.387-.97.929-1.008.541-.04.967.387 1.006.93.348 6.59 1.47 13.102 3.405 19.382 2.322 7.404 4.373 9.342 5.146 9.342 0 0 .504-.155.93-2.364.386-2.326.618-4.69.734-7.055.503-7.288 1.045-14.808 5.418-14.808 4.527 0 5.224 7.946 5.92 15.66.271 3.14.697 7.83 1.432 8.567.58-.116 3.56-1.938 8.01-25.08a.92.92 0 011.122-.775c.542.077.89.581.774 1.124v.038C59.746 60.977 56.572 64 54.329 64zm2.206-52.1L53.98 7.21l-1.006-1.86-1.393-2.56C50.188.233 46.976-.736 44.422.66c-1.741.93-2.747 2.752-2.786 4.613 0 .659.116 1.356.348 1.977.078.194.194.387.271.581l1.316 2.481.929 1.706 1.664 3.062.928 1.706.078.155a5.05 5.05 0 001.973 2.054c.774.465 1.703.698 2.593.737.89 0 1.78-.194 2.592-.66a5.267 5.267 0 001.974-1.821c.464-.775.774-1.667.812-2.559a5.125 5.125 0 00-.58-2.79zm-7.623 4.11l-.27-.505-1.24-2.325-.657-1.163-1.238-2.326-1.239-2.326-.27-.465a3.034 3.034 0 01-.387-1.512 3.39 3.39 0 011.741-3.062c1.625-.892 3.676-.272 4.566 1.356l.967 1.784 1.007 1.899 2.94 5.466c.465.814.503 1.744.271 2.597a3.273 3.273 0 01-1.625 1.977 3.377 3.377 0 01-2.515.271c-.852-.271-1.587-.814-2.051-1.667z"/><path d="M47.402 13.218a1.73 1.73 0 01-.89 1.706l-.31.155-3.87 2.093-1.78.97v.077a3.71 3.71 0 01-.425 2.325l2.36-1.279 4.605-2.48.271-.156a3.747 3.747 0 001.238-1.085l-1.2-2.326zM45.506 9.69a3.35 3.35 0 00-1.587.427l-.27.155-4.605 2.52-2.36 1.279h.154a3.605 3.605 0 012.09.969l1.78-.97 3.869-2.093.27-.155c.62-.348 1.394-.232 1.936.194L45.506 9.69z"/><path d="M42.371 17.25c0-.039 0-.078-.038-.078l-1.78.97v.077a3.71 3.71 0 01-.426 2.326c-.039.039-.039.077-.077.116a3.793 3.793 0 01-1.393 1.318L28.364 27.6l-1.664.892L7.932 38.687a3.684 3.684 0 01-4.991-1.473l-.542-1.047a1.83 1.83 0 01-.232-.581c-.271-.698-.31-1.474-.078-2.171.271-.93.89-1.745 1.78-2.249L24.881 19.77l1.896-1.008 7.894-4.264c.62-.35 1.354-.465 2.012-.427h.155a3.61 3.61 0 012.09.97l1.78-.97c-.426-.504-.968-.93-1.548-1.279h-.116c-1.587-.853-3.6-.93-5.302 0l-6.887 3.721L24.88 17.6 2.941 29.46C.232 30.934-.813 34.345.696 37.059l.542 1.046c1.47 2.714 4.876 3.76 7.623 2.248l18.69-10.117 1.664-.892 10.37-5.62c1.664-.93 2.709-2.559 2.902-4.342v-.116c.117-.66.04-1.357-.116-2.016zm16.136-.038l-1.354-2.52-.155-.31-1.896 1.046a3.273 3.273 0 01-1.625 1.977 3.377 3.377 0 01-2.515.272l-1.896 1.046.154.31 1.355 2.52c.851 1.55 2.825 2.132 4.372 1.318l.31-.155 1.703-.93.31-.155a3.314 3.314 0 001.237-4.42zm-2.205 2.674l-.31.155-1.702.93-.31.156a1.277 1.277 0 01-1.741-.504l-.465-.892-.116-.271 4.566-2.481.155.271.464.892a1.33 1.33 0 01-.541 1.744z"/><path d="M55.992 20.041l-1.702.93 2.824 5.195c.271.465.852.659 1.316.387.232-.116.387-.349.464-.581.078-.233.039-.504-.077-.737l-2.825-5.194zm-25.345.077l-3.638 1.977-1.78.969-23.1 12.52-.62.35-.929-1.706 1.47-.814 22.87-12.405 1.857-1.008 2.941-1.589a1.03 1.03 0 01.464-.116c.349 0 .697.194.852.504.27.504.077 1.085-.387 1.318z"/></g><defs><clipPath id="clip0"><path fill="#fff" d="M0 0h79v64H0z"/></clipPath></defs></svg>