<svg width="79" height="69" xmlns="http://www.w3.org/2000/svg"><defs><clipPath id="a"><path fill="#fff" d="M0 0h79v69H0z"/></clipPath></defs><g clip-path="url(#a)" fill="#363"><path d="M32.513 40.775a1.01 1.01 0 01-.364-.069C19.1 35.696 21.564 18.156 21.81 16.711a9.856 9.856 0 012.932-6.915 9.924 9.924 0 016.963-2.861.99.99 0 01.21.02A74.59 74.59 0 0045.57 8.307c1.684 0 8.049-.563 10.444-.777l.715-.064a1.016 1.016 0 011.096.92 1.008 1.008 0 01-.923 1.092l-.71.065c-4.12.366-9.051.78-10.622.78a75.58 75.58 0 01-13.966-1.372 7.897 7.897 0 00-5.501 2.336A7.842 7.842 0 0023.83 16.8a.97.97 0 010 .177c-.049.165-2.94 17.234 9.042 21.85a1.009 1.009 0 01.627 1.123 1.006 1.006 0 01-.99.822l.004.004zm35.092-25.324a1.011 1.011 0 01-.962-.7c-.884-2.75-4.038-5.808-7.152-5.808a1.012 1.012 0 01-1.01-1.006 1.005 1.005 0 011.01-1.006c3.23 0 7.641 2.753 9.075 7.204a1.005 1.005 0 01-.961 1.316zm-8.57 25.324a1.012 1.012 0 01-.962-.698 1.003 1.003 0 01.372-1.125c7.27-5.233 8.215-13.725 8.13-18.321a1.004 1.004 0 01.991-1.024 1.012 1.012 0 011.028.988c.093 4.99-.945 14.223-8.966 19.99-.172.125-.38.19-.593.19z"/><path d="M52.233 69c-2.471 0-2.855-4.262-3.44-10.718-.517-5.743-1.301-14.413-4.164-14.413-2.686 0-3.231 7.804-3.635 13.503-.477 6.758-.808 11.636-3.752 11.636-5.48 0-10.416-19.275-10.94-31.796a1.005 1.005 0 01.966-1.048 1.013 1.013 0 011.052.964 83.16 83.16 0 003.562 20.124c2.424 7.683 4.56 9.711 5.36 9.711 0 0 .529-.145.981-2.435.386-2.427.639-4.874.755-7.329.534-7.558 1.083-15.378 5.655-15.378 4.709 0 5.456 8.263 6.179 16.256.295 3.248.735 8.126 1.502 8.878.606-.129 3.724-2.012 8.36-26.06a1.005 1.005 0 01.787-.813 1.012 1.012 0 011.2.794c.025.132.024.267-.004.397C57.912 65.853 54.6 69 52.233 69zM17.452 9.184l6.717-1.243-6.717-1.248L16.204 0l-1.251 6.693-6.717 1.248 6.717 1.243 1.252 6.694 1.247-6.694zm17.02 22.048l4.652-.865-4.652-.862-.865-4.632-.864 4.632-4.648.862 4.648.865.864 4.633.865-4.633zm23.723.828a1.012 1.012 0 01-.994-.804l-2.23-11.954-12.002-2.237a1.01 1.01 0 01-.83-.99 1.004 1.004 0 01.83-.99l12.003-2.206L57.202.926a1.005 1.005 0 01.993-.827 1.012 1.012 0 01.993.827l2.23 11.953 11.994 2.222a1.01 1.01 0 01.83.99 1.004 1.004 0 01-.83.99l-11.995 2.221-2.229 11.954a1.005 1.005 0 01-.993.805zm-9.511-15.985l7.338 1.36a1.01 1.01 0 01.807.805l1.366 7.313 1.365-7.313a1.005 1.005 0 01.807-.805l7.339-1.36-7.339-1.36a1.011 1.011 0 01-.807-.806l-1.365-7.313-1.366 7.313a1.005 1.005 0 01-.807.805l-7.338 1.36z"/></g></svg>