<svg width="79" height="60" xmlns="http://www.w3.org/2000/svg"><defs><clipPath id="a"><path fill="#fff" d="M0 0h79v60H0z"/></clipPath></defs><g clip-path="url(#a)" fill="#363"><path d="M61.565 28.872a.493.493 0 010 .7 18.823 18.823 0 01-3.308 2.957c-.428.312-1.05.195-1.361-.233-.312-.428-.195-1.012.233-1.323 1.167-.856 2.179-1.751 2.996-2.763a.52.52 0 01.778 0l.662.662zM63.86 3.891h-1.556a.353.353 0 01-.272-.117c-1.323-1.128-2.996-1.828-4.864-1.828-4.086.894-8.25 1.361-12.451 1.322-4.514-.038-9.028-.466-13.425-1.322a7.582 7.582 0 00-7.47 7.743v.039a31.893 31.893 0 000 9.027c.972 6.148 3.89 10.233 8.716 12.101a.96.96 0 01.544 1.245.96.96 0 01-.895.623c-.116 0-.233-.04-.35-.078-1.362-.545-2.568-1.206-3.58-1.985a14.72 14.72 0 01-1.984-1.79c-6.187-6.809-4.592-18.287-4.397-19.416A9.507 9.507 0 0131.41 0h.195c4.319.856 8.755 1.284 13.151 1.323 4.047 0 8.094-.428 12.063-1.284C56.896 0 56.973 0 57.09 0c2.84 0 5.37 1.245 7.12 3.19.234.273.04.701-.35.701z"/><path d="M51.176 60c-2.374 0-2.763-4.125-3.308-10.35-.505-5.565-1.245-13.93-4.007-13.93-2.607 0-3.113 7.548-3.502 13.034C39.892 55.291 39.58 60 36.739 60c-5.29 0-10.038-18.638-10.544-30.739-.039-.545.39-.973.934-1.011.545-.04.973.389 1.012.933.35 6.615 1.478 13.152 3.424 19.456 2.335 7.432 4.397 9.377 5.175 9.377 0 0 .506-.156.934-2.335.389-2.334.622-4.708.74-7.081.505-7.315 1.05-14.864 5.447-14.864 4.552 0 5.253 7.977 5.953 15.72.272 3.152.7 7.86 1.44 8.599.583-.117 3.58-1.946 8.054-25.214a.925.925 0 011.128-.778.925.925 0 01.779 1.128v.04C56.662 56.964 53.433 60 51.175 60zm27.393-48.483H50.903l-.155.389c-.156.389-.117.856.155 1.206l.312.35L63.744 28.52l.272.312a.77.77 0 001.206 0l.234-.312 12.529-15.097.506-.545c.272-.35.35-.778.156-1.206l-.078-.155zm-10.934 11.4l-2.996 3.62-2.607-3.114-7.277-8.755c-.389-.467-.038-1.206.584-1.206h18.6c.622 0 .972.74.583 1.206l-6.887 8.25z"/><path d="M78.569 11.517l-2.413-5.603c-.116-.311-.428-.467-.74-.467h-21.36c-.312 0-.623.195-.74.467l-2.413 5.564-.272.584a.783.783 0 00.117.817l.428.506h26.77l.623-.74a.783.783 0 00.116-.816l-.116-.312zm-24.164 0c-.661 0-1.09-.661-.817-1.245l.856-2.023.35-.856H74.64l.389.895.856 1.945c.272.584-.195 1.245-.817 1.245l-20.662.04z"/><path d="M76.078 7.004l-1.011 1.284-2.49 3.19-1.129 1.44-.39.506-.388.506-.506-.506-.7-.74-1.168-1.206-2.84-2.957c-.35-.39-.973-.35-1.323.039l-2.607 2.918-1.05 1.207-.662.739-.467.506-.428-.506-.428-.467-1.245-1.479-2.802-3.268-1.011-1.168 1.478-1.245 1.362 1.596 2.412 2.801a.883.883 0 001.362 0l2.53-2.84 1.75-1.946h.857l1.867 1.946 2.724 2.84a.912.912 0 001.362-.078l2.179-2.801 1.206-1.557 1.556 1.246z"/><path d="M71.487 12.84l-.039.117-.194.506-3.619 9.455-2.14 5.642-.234.272c-.31.39-.894.39-1.245 0l-.233-.311-1.712-5.136-3.424-9.922-.156-.467-.078-.195 1.829-.622.195.544.272.74 3.23 9.61c.233.7 1.245.74 1.517.04l3.697-9.65.272-.74.233-.583 1.83.7z"/></g></svg>