<svg width="18" height="16" fill="none" xmlns="http://www.w3.org/2000/svg"><path d="M12.304 12.477l-2.866-1.39A.763.763 0 019 10.4v-.983a6.584 6.584 0 001.102-1.964c.423-.188.698-.594.698-1.052V5.236c0-.28-.108-.551-.3-.763V2.925c.017-.16.083-1.112-.628-1.898C9.256.346 8.256 0 6.9 0 5.544 0 4.544.346 3.928 1.027c-.71.786-.645 1.738-.628 1.898v1.547a1.14 1.14 0 00-.3.764V6.4c0 .354.166.684.45.904A6.037 6.037 0 004.5 9.41v.963c0 .282-.158.54-.413.675L1.41 12.462A2.613 2.613 0 000 14.768V16h13.8v-1.176c0-1-.573-1.9-1.496-2.347z" fill="#000" fill-opacity=".4"/><path d="M12.304 12.477l-2.866-1.39A.763.763 0 019 10.4v-.983a6.584 6.584 0 001.102-1.964c.423-.188.698-.594.698-1.052V5.236c0-.28-.108-.551-.3-.763V2.925c.017-.16.083-1.112-.628-1.898C9.256.346 8.256 0 6.9 0 5.544 0 4.544.346 3.928 1.027c-.71.786-.645 1.738-.628 1.898v1.547a1.14 1.14 0 00-.3.764V6.4c0 .354.166.684.45.904A6.037 6.037 0 004.5 9.41v.963c0 .282-.158.54-.413.675L1.41 12.462A2.613 2.613 0 000 14.768V16h13.8v-1.176c0-1-.573-1.9-1.496-2.347z" fill="#009344"/><path d="M16.64 12.808l-2.917-1.225a.584.584 0 01-.211-.225h1.957s.114.01.29.01c.321 0 .79-.036 1.2-.206a.864.864 0 00.5-.555.842.842 0 00-.128-.734c-.56-.772-1.865-2.79-1.906-4.835-.001-.036-.12-3.515-3.663-3.544a4.58 4.58 0 00-1.012.12c.238.61.216 1.155.2 1.332v1.377c.194.268.3.586.3.913V6.4a1.59 1.59 0 01-.782 1.356A6.999 6.999 0 019.45 9.567v.832c0 .129.07.24.19.297l2.865 1.39c1.076.522 1.745 1.57 1.745 2.737V16H18v-1.075c0-.9-.515-1.708-1.36-2.117z" fill="#000" fill-opacity=".4"/><path d="M16.64 12.808l-2.917-1.225a.584.584 0 01-.211-.225h1.957s.114.01.29.01c.321 0 .79-.036 1.2-.206a.864.864 0 00.5-.555.842.842 0 00-.128-.734c-.56-.772-1.865-2.79-1.906-4.835-.001-.036-.12-3.515-3.663-3.544a4.58 4.58 0 00-1.012.12c.238.61.216 1.155.2 1.332v1.377c.194.268.3.586.3.913V6.4a1.59 1.59 0 01-.782 1.356A6.999 6.999 0 019.45 9.567v.832c0 .129.07.24.19.297l2.865 1.39c1.076.522 1.745 1.57 1.745 2.737V16H18v-1.075c0-.9-.515-1.708-1.36-2.117z" fill="#009344"/></svg>