<svg width="13" height="10" viewBox="0 0 13 10" fill="none" xmlns="http://www.w3.org/2000/svg">
<path d="M6.28285 2.01855L1.80132 5.7131C1.80132 5.71831 1.80001 5.72599 1.79739 5.73644C1.79482 5.74681 1.79346 5.75435 1.79346 5.7597V9.50082C1.79346 9.6359 1.84284 9.75295 1.94158 9.85153C2.0403 9.95016 2.15719 9.99979 2.2923 9.99979H5.28512V7.00681H7.28061V9.9999H10.2734C10.4085 9.9999 10.5255 9.95038 10.6241 9.85153C10.7229 9.75306 10.7724 9.63592 10.7724 9.50082V5.7597C10.7724 5.73895 10.7696 5.72328 10.7645 5.7131L6.28285 2.01855Z" fill="#006738"/>
<path d="M12.4791 4.8714L10.7723 3.45287V0.272857C10.7723 0.200159 10.7489 0.140373 10.702 0.0935821C10.6555 0.0468457 10.5957 0.0234774 10.5229 0.0234774H9.02644C8.95366 0.0234774 8.8939 0.0468457 8.84708 0.0935821C8.80037 0.140373 8.77703 0.200186 8.77703 0.272857V1.79269L6.87531 0.202643C6.70922 0.0675385 6.51174 0 6.28308 0C6.05445 0 5.85699 0.0675385 5.69074 0.202643L0.0866085 4.8714C0.034658 4.9129 0.00618485 4.96875 0.000888795 5.03891C-0.00437996 5.10901 0.0137741 5.17025 0.0554054 5.22217L0.53863 5.79895C0.580261 5.84569 0.634751 5.87427 0.702316 5.88472C0.764695 5.88997 0.827074 5.87173 0.889453 5.83018L6.28292 1.33283L11.6764 5.83015C11.7181 5.86641 11.7726 5.88451 11.8401 5.88451H11.8635C11.931 5.87424 11.9854 5.84547 12.0272 5.79884L12.5105 5.22214C12.5521 5.17011 12.5703 5.10899 12.5649 5.0388C12.5595 4.96883 12.531 4.91298 12.4791 4.8714Z" fill="#006738"/>
</svg>
