<svg width="15" height="15" viewBox="0 0 15 15" fill="none" xmlns="http://www.w3.org/2000/svg">
<path d="M7.5 0C3.3642 0 0 3.36419 0 7.5C0 11.6358 3.3642 15 7.5 15C11.6358 15 15 11.6358 15 7.5C15 3.36419 11.6358 0 7.5 0ZM7.5 13.4105C4.24383 13.4105 1.60494 10.7562 1.60494 7.51543C1.60494 4.27469 4.25926 1.62037 7.5 1.62037C10.7407 1.62037 13.3951 4.27469 13.3951 7.51543C13.3951 10.7562 10.7562 13.4105 7.5 13.4105Z" fill="#006738"/>
<path d="M11.4043 7.26852H8.04012V3.22531C8.04012 2.8858 7.76235 2.60802 7.42284 2.60802C7.08333 2.60802 6.80556 2.8858 6.80556 3.22531V7.8858C6.80556 8.22531 7.08333 8.50308 7.42284 8.50308H11.4043C11.7438 8.50308 12.0216 8.22531 12.0216 7.8858C12.0216 7.54629 11.7438 7.26852 11.4043 7.26852Z" fill="#006738"/>
</svg>
