<svg width="79" height="61" xmlns="http://www.w3.org/2000/svg">
 <defs>
  <clipPath id="clip0">
   <rect id="svg_1" fill="white" height="60.3525" width="79"/>
  </clipPath>
 </defs>
 <g>
  <title>Layer 1</title>
  <g id="svg_2" clip-path="url(#clip0)">
   <path id="svg_3" fill="#336633" d="m63.97129,19.1518c-0.4308,2.3498 -1.2141,4.8955 -2.5848,7.3237c-0.7441,1.2924 -1.6449,2.5457 -2.7415,3.7206c-0.0392,0.0392 -0.0784,0.0784 -0.1175,0.1175c-0.0392,0 -0.0392,0.0392 -0.0783,0.0392c-1.2141,0.5483 -2.5457,0.9008 -3.9948,0.9399c0.0391,-0.0391 0.0783,-0.0783 0.1175,-0.0783c1.0574,-0.7833 1.9974,-1.6057 2.8198,-2.5065c0.6658,-0.2742 1.2924,-0.6658 1.8799,-1.1358c0.0392,-0.0391 0.0783,-0.0783 0.0783,-0.1175l0.0392,-0.0391c0.1175,-0.0784 0.235,-0.1959 0.3525,-0.2742c1.5274,-1.4491 2.5065,-3.5248 2.5065,-5.7963c0,-0.7442 -0.1175,-1.4883 -0.3133,-2.1541c0.235,-1.2532 0.3916,-2.4282 0.47,-3.5639c0.7441,1.0182 1.2924,2.2323 1.5665,3.5248z"/>
   <path id="svg_4" fill="#336633" d="m64.40129,15.47c-0.5483,-0.94 -1.2141,-1.8016 -1.9583,-2.5457c-0.0391,-1.2533 -0.1566,-2.1932 -0.2349,-2.7415c-0.0392,-0.27418 -0.0784,-0.39168 -0.0784,-0.43084c0,-0.07833 0,-0.11749 0,-0.19582c0,-4.1906 -3.3681,-7.59791 -7.5196,-7.63708c-4.1122,0.90078 -8.3028,1.37076 -12.5326,1.33159c-4.5431,0.03917 -9.047,-0.43081 -13.51175,-1.29243c-4.1906,0.03917 -7.55875,3.44648 -7.55875,7.63708c0,0.07833 0,0.1175 0,0.15666c-0.43081,3.01564 -0.43081,6.07054 0,9.08614c0.97911,6.188 3.91645,10.3003 8.7728,12.1802c0.5092,0.1958 0.7442,0.7833 0.5484,1.2532c-0.1567,0.3525 -0.5092,0.6267 -0.9008,0.6267c-0.1175,0 -0.235,-0.0392 -0.3525,-0.0783c-1.37077,-0.5484 -2.58487,-1.2142 -3.60315,-1.9974c-0.74412,-0.5483 -1.40992,-1.175 -1.99739,-1.8016c-6.22715,-6.8146 -4.58224,-18.3682 -4.42559,-19.50393c0.07833,-5.24804 4.34726,-9.51697 9.59531,-9.51697c0.07833,0 0.11752,0 0.19582,0.03916c4.3864,0.82246 8.812,1.25327 13.2768,1.29243c4.0731,0 8.1462,-0.43081 12.141,-1.29243c0.0783,-0.03916 0.1566,-0.03916 0.2349,-0.03916c5.2481,0 9.5562,4.22977 9.5953,9.51697c0.0392,0.31332 0.1959,1.25323 0.3134,2.66323c0.0391,0.9007 0.0783,2.0365 0,3.2898z"/>
   <path id="svg_5" fill="#336633" d="m58.68449,33.367c0,0 0,0.0392 0,0c-0.0784,0.3133 -0.1175,0.6266 -0.1959,0.9008c-4.5039,23.107 -7.6762,26.0835 -9.9477,26.0835c-2.3891,0 -2.7807,-4.1514 -3.329,-10.4177c-0.5092,-5.6006 -1.2533,-14.0209 -4.034,-14.0209c-2.624,0 -3.1331,7.5979 -3.5248,13.1201c-0.47,6.5796 -0.7833,11.3185 -3.6423,11.3185c-5.32635,0 -10.10442,-18.7598 -10.61356,-30.9399c0,-0.1175 0,-0.2742 0.07833,-0.3917c0.1175,-0.3525 0.46998,-0.6266 0.86162,-0.6266c0.54831,-0.0392 0.97912,0.3916 1.01828,0.9399c0.03916,0.5092 0.03916,1.0183 0.07833,1.4883c0.43081,6.1488 1.56658,12.2193 3.3681,18.094c2.3499,7.4804 4.4256,9.4386 5.2089,9.4386c0,0 0.5092,-0.1566 0.94,-2.3498c0.3916,-2.3499 0.6266,-4.7389 0.7441,-7.128c0.5091,-7.3629 1.0574,-14.9608 5.483,-14.9608c4.5823,0 5.2872,8.0287 5.9922,15.8224c0.2741,3.1724 0.705,7.9113 1.4491,8.6554c0.5875,-0.1175 3.4465,-1.8799 7.7546,-23.6162c0.1174,-0.5875 0.2349,-1.1749 0.3524,-1.7624c0,-0.1175 0.0784,-0.235 0.1175,-0.3133c0.47,-0.1175 0.9008,-0.235 1.3316,-0.3917c0.3525,0.235 0.5875,0.6267 0.5092,1.0575z"/>
   <path id="svg_6" fill="#336633" d="m67.92749,21.266c0,2.8198 -0.8616,5.4047 -2.3107,7.5979c0,0 0,0 0,0.0391c-0.3525,0.5483 -0.7833,1.0966 -1.2141,1.5275l-1.3707,-1.3708c0.4308,-0.47 0.8224,-1.0183 1.1749,-1.5666c1.0966,-1.8015 1.7624,-3.9164 1.7624,-6.188c0,-2.1149 -0.5483,-4.1122 -1.5666,-5.8355c-0.5483,-0.9399 -1.2141,-1.8015 -1.9582,-2.5457c-2.1149,-2.0757 -5.0131,-3.32896 -8.1854,-3.32896c-6.4621,0 -11.7102,5.24806 -11.7102,11.71016c0,6.4622 5.2481,11.7102 11.7102,11.7102c0.9008,0 1.7624,-0.0783 2.5849,-0.2741c0.4699,-0.1175 0.9007,-0.235 1.3316,-0.3917c0.3524,-0.1175 0.7049,-0.2741 1.0574,-0.4308c0,0 0.0392,0 0.0392,-0.0392c0.5874,-0.2741 1.1357,-0.6266 1.684,-0.9791l1.41,1.41c-0.5092,0.3916 -1.0966,0.7441 -1.645,1.0574c0,0 0,0 -0.0391,0c-0.705,0.3525 -1.4099,0.6658 -2.1932,0.9399c-0.6658,0.235 -1.3708,0.3917 -2.1149,0.5092c-0.705,0.1175 -1.4099,0.1566 -2.1541,0.1566c-7.5587,0 -13.6684,-6.1488 -13.6684,-13.6684c0,-7.5587 6.1489,-13.66838 13.6684,-13.66838c2.9765,0 5.7181,0.93995 7.9504,2.58488c0.7833,0.5874 1.5275,1.2141 2.1541,1.9582c2.2715,2.389 3.6031,5.6005 3.6031,9.0862z"/>
   <path id="svg_7" fill="#336633" d="m63.97189,19.1512c-0.3133,-1.2925 -0.8225,-2.5066 -1.6058,-3.564c-1.7624,-2.5457 -4.7389,-4.2298 -8.107,-4.2298c-5.483,0 -9.9478,4.4648 -9.9478,9.9478c0,5.483 4.4648,9.9478 9.9478,9.9478c0.0783,0 0.1566,0 0.235,0c1.4491,-0.0392 2.7807,-0.3917 3.9948,-0.94c0.0391,0 0.0391,-0.0391 0.0783,-0.0391c0.7833,-0.3917 1.5666,-0.9008 2.1932,-1.4491c0.0783,-0.0783 0.1567,-0.1175 0.235,-0.1958c0.6658,-0.6267 1.2532,-1.2925 1.7232,-2.0758c0.9791,-1.5274 1.5274,-3.3289 1.5274,-5.248c0,-0.7441 -0.0783,-1.4491 -0.2741,-2.154zm-9.6736,10.1044c-4.3865,0 -7.9896,-3.6031 -7.9896,-7.9896c0,-4.3864 3.564,-7.9504 7.9504,-7.9504c3.6423,0 6.7363,2.4674 7.6762,5.8356c0.1959,0.7049 0.3133,1.4099 0.3133,2.154c0,2.2715 -0.9791,4.3473 -2.5065,5.7963c-0.1175,0.1175 -0.235,0.235 -0.3525,0.3134c-0.0391,0.0391 -0.0783,0.0783 -0.1175,0.1175c-0.5483,0.4699 -1.1749,0.8224 -1.8799,1.1357c-0.9791,0.3525 -1.9973,0.5875 -3.0939,0.5875z"/>
   <path id="svg_8" fill="#336633" d="m61.73939,26.4355c-0.1175,0 -0.235,0 -0.3525,0.0392c-0.6266,0.0392 -1.1749,0.2742 -1.6449,0.6266c-0.1175,0.0784 -0.235,0.1959 -0.3525,0.2742l-0.0391,0.0392c-0.0392,0.0391 -0.0784,0.0783 -0.0784,0.1175c-0.5483,0.6266 -0.8616,1.3707 -0.8616,2.1932c0,0.1958 0,0.3916 0.0392,0.5483c0.0783,-0.0392 0.1567,-0.0784 0.1958,-0.1175c0.7441,-0.3917 1.4491,-0.8225 2.0366,-1.3708l0.0391,-0.0391c0.0392,-0.0392 0.1175,-0.1175 0.1959,-0.1567c0.6658,-0.6266 1.2532,-1.2924 1.7232,-2.0757c-0.235,-0.0392 -0.5483,-0.0784 -0.9008,-0.0784zm0,0c-0.1175,0 -0.235,0 -0.3525,0.0392c-0.6266,0.0392 -1.1749,0.2742 -1.6449,0.6266c-0.1175,0.0784 -0.235,0.1959 -0.3525,0.2742l-0.0391,0.0392c-0.0392,0.0391 -0.0784,0.0783 -0.0784,0.1175c-0.5483,0.6266 -0.8616,1.3707 -0.8616,2.1932c0,0.1958 0,0.3916 0.0392,0.5483c0.0783,-0.0392 0.1567,-0.0784 0.1958,-0.1175c0.7441,-0.3917 1.4491,-0.8225 2.0366,-1.3708l0.0391,-0.0391c0.0392,-0.0392 0.1175,-0.1175 0.1959,-0.1567c0.6658,-0.6266 1.2532,-1.2924 1.7232,-2.0757c-0.235,-0.0392 -0.5483,-0.0784 -0.9008,-0.0784zm0,0c-0.1175,0 -0.235,0 -0.3525,0.0392c-0.6266,0.0392 -1.1749,0.2742 -1.6449,0.6266c-0.1175,0.0784 -0.235,0.1959 -0.3525,0.2742l-0.0391,0.0392c-0.0392,0.0391 -0.0784,0.0783 -0.0784,0.1175c-0.5483,0.6266 -0.8616,1.3707 -0.8616,2.1932c0,0.1958 0,0.3916 0.0392,0.5483c0.0783,-0.0392 0.1567,-0.0784 0.1958,-0.1175c0.7441,-0.3917 1.4491,-0.8225 2.0366,-1.3708l0.0391,-0.0391c0.0392,-0.0392 0.1175,-0.1175 0.1959,-0.1567c0.6658,-0.6266 1.2532,-1.2924 1.7232,-2.0757c-0.235,-0.0392 -0.5483,-0.0784 -0.9008,-0.0784zm16.0575,14.6476l-13.5901,-13.5901c-0.3525,0.5483 -0.7442,1.0966 -1.175,1.5666l13.3943,13.3942c0.5091,0.5092 0.5091,1.3708 0,1.9191c-0.5091,0.5091 -1.4099,0.5091 -1.9191,0l-13.5117,-13.5118c-0.5483,0.3917 -1.1358,0.7442 -1.7233,1.0183c0.0392,0.0783 0.1175,0.1175 0.1567,0.1958l1.2924,1.2925l12.4152,12.4151c0.6266,0.6267 1.4491,0.9791 2.3498,0.9791c0.9008,0 1.7233,-0.3524 2.3499,-0.9791c1.2141,-1.3316 1.2141,-3.4073 -0.0391,-4.6997zm-17.0366,-12.3368c0.0392,-0.0392 0.1175,-0.1175 0.1958,-0.1567c0.6658,-0.6266 1.2533,-1.2924 1.7233,-2.0757c-0.2742,-0.0392 -0.5875,-0.0784 -0.94,-0.0784c-0.1175,0 -0.235,0 -0.3525,0.0392c-0.6266,0.0392 -1.1749,0.2742 -1.6449,0.6266c-0.1175,0.0784 -0.235,0.1959 -0.3525,0.2742l-0.0391,0.0392c-0.0392,0.0391 -0.0784,0.0783 -0.0784,0.1175c-0.5483,0.6266 -0.8616,1.3707 -0.8616,2.1932c0,0.1958 0,0.3916 0.0392,0.5483c0.0783,-0.0392 0.1567,-0.0784 0.1958,-0.1175c0.7441,-0.3525 1.4883,-0.8225 2.1149,-1.4099zm0.9791,-2.3108c-0.1175,0 -0.235,0 -0.3525,0.0392c-0.6266,0.0392 -1.1749,0.2742 -1.6449,0.6266c-0.1175,0.0784 -0.235,0.1959 -0.3525,0.2742l-0.0391,0.0392c-0.0392,0.0391 -0.0784,0.0783 -0.0784,0.1175c-0.5483,0.6266 -0.8616,1.3707 -0.8616,2.1932c0,0.1958 0,0.3916 0.0392,0.5483c0.0783,-0.0392 0.1567,-0.0784 0.1958,-0.1175c0.7441,-0.3917 1.4491,-0.8225 2.0366,-1.3708l0.0391,-0.0391c0.0392,-0.0392 0.1175,-0.1175 0.1959,-0.1567c0.6658,-0.6266 1.2532,-1.2924 1.7232,-2.0757c-0.235,-0.0392 -0.5483,-0.0784 -0.9008,-0.0784z"/>
  </g>
 </g>
</svg>