<svg width="79" height="64" viewBox="0 0 79 64" fill="none" xmlns="http://www.w3.org/2000/svg">
<g clip-path="url(#clip0)">
<path d="M27.0095 22.0962L25.2295 23.0653C25.1134 22.3676 25.036 21.6698 24.9973 21.0108L26.8547 20.0029C26.8547 20.7007 26.8934 21.3984 27.0095 22.0962Z" fill="#336633"/>
<path d="M36.335 36.2053C36.1802 36.5929 35.8319 36.8255 35.445 36.8255C35.3289 36.8255 35.2128 36.7868 35.0967 36.748C33.7424 36.2053 32.5428 35.5463 31.5368 34.771C30.8015 34.2283 30.1437 33.6081 29.5633 32.9879C28.7894 32.135 28.1316 31.2047 27.5898 30.2356C27.2803 29.6541 26.9707 29.0727 26.7385 28.4912L28.4024 27.5996C28.6346 28.2198 28.9442 28.8013 29.2537 29.344C30.7628 31.98 32.9298 33.8794 35.7933 34.9648C36.2576 35.1587 36.5285 35.7014 36.335 36.2053Z" fill="#336633"/>
<path d="M43.9968 6.89935L44.2676 7.36452C43.5324 7.32576 42.7585 7.287 42.0233 7.20947C39.5081 6.97688 37.0316 6.628 34.5551 6.16283C30.4147 6.24036 27.0869 9.61286 27.0869 13.7219C27.0869 13.7994 27.0869 13.8382 27.0869 13.8769C26.9708 14.7298 26.8547 15.6213 26.816 16.5129C26.7773 17.2494 26.7386 17.986 26.7773 18.7613L24.8812 19.7691C24.8425 18.9938 24.8425 18.2573 24.8425 17.5983C24.8812 15.505 25.1134 14.032 25.1521 13.6444C25.1908 8.44993 29.4473 4.22461 34.6325 4.22461C34.7099 4.22461 34.7486 4.22461 34.8259 4.22461C37.0703 4.65102 39.3533 4.9999 41.6363 5.19372C42.2942 5.27125 42.9133 5.31001 43.5711 5.34878C43.6098 5.89148 43.7259 6.43418 43.9968 6.89935Z" fill="#336633"/>
<path d="M61.4098 36.6323C60.9841 36.9424 60.365 36.8261 60.0555 36.3997C59.7459 35.9733 59.862 35.3919 60.2876 35.0817C70.3097 27.8328 67.7945 14.0714 67.7558 13.9164C67.7558 13.8389 67.7558 13.8001 67.7558 13.7226C67.7558 9.57477 64.428 6.20227 60.3263 6.16351C58.2368 6.62868 56.1472 6.97756 54.019 7.17138C53.3225 7.24891 52.6259 7.28767 51.9294 7.3652L50.9233 5.46575C51.6199 5.42698 52.3551 5.38822 53.0516 5.31069C55.3733 5.11687 57.695 4.72922 59.9781 4.22529C60.0555 4.18652 60.1328 4.18652 60.2489 4.18652C65.4341 4.18652 69.6906 8.37308 69.7293 13.6063C69.9228 15.0406 72.0897 28.9182 61.4098 36.6323Z" fill="#336633"/>
<path d="M54.3285 64.0004C51.9681 64.0004 51.5812 59.8914 51.0394 53.6891C50.5364 48.1458 49.8012 39.8114 47.0538 39.8114C44.4612 39.8114 43.9582 47.3317 43.5712 52.7975C43.1069 59.3099 42.7973 64.0004 39.9725 64.0004C34.71 64.0004 29.9891 45.4323 29.4861 33.3765C29.4474 32.8338 29.873 32.4074 30.4148 32.3687C30.9565 32.3299 31.3822 32.7563 31.4209 33.299C31.7691 39.889 32.8913 46.4014 34.8261 52.6812C37.1478 60.0852 39.1986 62.0234 39.9725 62.0234C39.9725 62.0234 40.4756 61.8684 40.9012 59.6588C41.2882 57.3329 41.5204 54.9683 41.6364 52.6037C42.1395 45.316 42.6812 37.7957 47.0538 37.7957C51.5812 37.7957 52.2777 45.7424 52.9742 53.4565C53.2451 56.5964 53.6707 61.2869 54.4059 62.0234C54.9864 61.9071 57.9659 60.0852 62.4159 36.9429C62.4933 36.4002 62.9963 36.0513 63.538 36.1676C64.0798 36.2451 64.428 36.749 64.312 37.2917V37.3305C59.7459 60.9768 56.5729 64.0004 54.3285 64.0004Z" fill="#336633"/>
<path d="M56.534 11.9004L53.9801 7.20992L52.974 5.34923L51.581 2.79078C50.1879 0.232334 46.9762 -0.736775 44.4223 0.658743C42.681 1.58909 41.6749 3.41101 41.6362 5.2717C41.6362 5.9307 41.7523 6.62846 41.9845 7.24869C42.0619 7.44251 42.178 7.63633 42.2554 7.83015L43.571 10.3111L44.4997 12.0167L46.1636 15.0791L47.0923 16.7847L47.1697 16.9398C47.634 17.8314 48.3305 18.5291 49.1431 18.9943C49.9171 19.4595 50.8457 19.6921 51.7357 19.7308C52.6257 19.7308 53.5157 19.537 54.3283 19.0718C55.1409 18.6454 55.8375 17.9864 56.3018 17.2499C56.7661 16.4746 57.0757 15.583 57.1144 14.6915C57.1918 13.7611 56.9983 12.792 56.534 11.9004ZM48.911 16.0094L48.6401 15.5055L47.4018 13.1796L46.744 12.0167L45.5058 9.69084L44.2675 7.36498L43.9967 6.89981C43.7258 6.43464 43.6097 5.89193 43.6097 5.388C43.571 4.14754 44.2288 2.94584 45.351 2.32561C46.9762 1.43403 49.0271 2.05426 49.9171 3.68236L50.8844 5.46553L51.8905 7.36498L54.8314 12.8308C55.2957 13.6448 55.3344 14.5752 55.1022 15.428C54.8701 16.242 54.2896 16.9785 53.477 17.405C52.6644 17.8314 51.7744 17.9089 50.9618 17.6763C50.1105 17.405 49.3753 16.8623 48.911 16.0094Z" fill="#336633"/>
<path d="M47.4017 13.218C47.4791 13.9157 47.1309 14.5747 46.5117 14.9236L46.2022 15.0787L42.3326 17.172L40.5526 18.1411C40.5526 18.1798 40.5526 18.2186 40.5526 18.2186C40.6687 19.0326 40.514 19.8467 40.127 20.5445L42.4874 19.2652L47.0922 16.7843L47.363 16.6293C47.8661 16.3579 48.2917 15.9703 48.6013 15.5439L47.4017 13.218ZM45.5057 9.69043C44.9639 9.69043 44.4222 9.84549 43.9192 10.1168L43.6483 10.2719L39.0435 12.7916L36.6831 14.0708C36.7218 14.0708 36.7992 14.0708 36.8379 14.0708C37.6118 14.1483 38.347 14.4972 38.9274 15.0399L40.7074 14.0708L44.577 11.9775L44.8478 11.8225C45.467 11.4736 46.2409 11.5899 46.7826 12.0163L45.5057 9.69043Z" fill="#336633"/>
<path d="M42.3714 17.25C42.3714 17.2112 42.3714 17.1724 42.3327 17.1724L40.5527 18.1415C40.5527 18.1803 40.5527 18.2191 40.5527 18.2191C40.6688 19.0331 40.514 19.8472 40.1271 20.5449C40.0884 20.5837 40.0884 20.6225 40.0497 20.6612C39.7014 21.2039 39.2371 21.6691 38.6566 21.9792L28.3637 27.6L26.6998 28.4916L7.93248 38.6867C6.15249 39.6558 3.90815 38.9968 2.94077 37.2136L2.39903 36.167C2.28295 35.9731 2.20556 35.7793 2.16686 35.5855C1.89599 34.8877 1.8573 34.1125 2.08947 33.4147C2.36034 32.4844 2.97946 31.6703 3.86946 31.1664L24.8811 19.7696L26.7771 18.7618L34.671 14.4977C35.2901 14.1488 36.0253 14.0325 36.6832 14.0713C36.7219 14.0713 36.7993 14.0713 36.8379 14.0713C37.6119 14.1488 38.3471 14.4977 38.9275 15.0404L40.7075 14.0713C40.2818 13.5673 39.7401 13.1409 39.1597 12.792C39.0823 12.792 39.0823 12.792 39.0436 12.792C37.4571 11.9392 35.4449 11.8617 33.7423 12.792L26.8545 16.5134L24.8811 17.5988L2.94077 29.4607C0.23209 30.9338 -0.812686 34.345 0.696435 37.0585L1.23817 38.1052C2.7086 40.8187 6.11379 41.8653 8.86117 40.3535L27.551 30.236L29.215 29.3444L39.5853 23.7236C41.2492 22.7933 42.294 21.1652 42.4875 19.382C42.4875 19.3432 42.4875 19.3045 42.4875 19.2657C42.6036 18.6067 42.5262 17.9089 42.3714 17.25Z" fill="#336633"/>
<path d="M58.5073 17.2116L57.153 14.692L56.9982 14.3818L55.1022 15.4285C54.87 16.2425 54.2896 16.9791 53.4769 17.4055C52.6643 17.8319 51.7743 17.9094 50.9617 17.6768L49.0657 18.7234L49.2205 19.0336L50.5748 21.5532C51.4261 23.1038 53.3996 23.6853 54.9474 22.8712L55.2569 22.7162L56.9595 21.7858L57.2691 21.6308C58.7782 20.7392 59.3586 18.801 58.5073 17.2116ZM56.3017 19.8864L55.9921 20.0414L54.2896 20.9718L53.98 21.1268C53.3609 21.4757 52.587 21.2431 52.2387 20.6229L51.7744 19.7313L51.6583 19.46L56.2243 16.979L56.3791 17.2504L56.8434 18.142C57.153 18.7622 56.9208 19.5375 56.3017 19.8864Z" fill="#336633"/>
<path d="M55.9921 20.041L54.2896 20.9714L57.1143 26.1658C57.3852 26.631 57.9656 26.8248 58.43 26.5534C58.6621 26.4371 58.8169 26.2045 58.8943 25.972C58.9717 25.7394 58.933 25.468 58.8169 25.2354L55.9921 20.041Z" fill="#336633"/>
<path d="M30.6467 20.1178L27.0093 22.0948L25.2293 23.0639L2.12814 35.5848L1.50901 35.9337L0.580322 34.2281L2.05075 33.414L24.9197 21.0094L26.7771 20.0015L29.718 18.4122C29.8728 18.3347 30.0275 18.2959 30.1823 18.2959C30.5306 18.2959 30.8788 18.4897 31.0336 18.7998C31.3045 19.3038 31.111 19.8852 30.6467 20.1178Z" fill="#336633"/>
</g>
<defs>
<clipPath id="clip0">
<rect width="79" height="64" fill="white"/>
</clipPath>
</defs>
</svg>
