<svg width="79" height="69" xmlns="http://www.w3.org/2000/svg">
 <defs>
  <clipPath id="clip0">
   <rect width="79" height="69" fill="white" id="svg_1"/>
  </clipPath>
 </defs>
 <g>
  <title>Layer 1</title>
  <g clip-path="url(#clip0)" id="svg_2">
   <path d="m32.5129,40.7746c-0.1244,-0.0004 -0.2476,-0.0236 -0.3635,-0.0685c-13.049,-5.0108 -10.5854,-22.5505 -10.339,-23.9954c0.0255,-2.5995 1.0789,-5.0841 2.9314,-6.91444c1.8525,-1.8303 4.3547,-2.85859 6.9633,-2.86165c0.0705,-0.00065 0.1409,0.0061 0.21,0.02013c4.5001,0.86933 9.0711,1.32202 13.6548,1.35231c1.6841,0 8.0491,-0.56347 10.444,-0.77678l0.7148,-0.06439c0.2678,-0.02295 0.5338,0.06105 0.7394,0.23351c0.2057,0.17247 0.3341,0.41928 0.3572,0.68614c0.023,0.26685 -0.0613,0.5319 -0.2344,0.73682c-0.173,0.20493 -0.4207,0.33294 -0.6885,0.35589l-0.7108,0.0644c-4.1194,0.36625 -9.0507,0.78076 -10.6217,0.78076c-4.688,-0.0234 -9.3635,-0.48285 -13.9657,-1.3724c-2.0705,0.02855 -4.0466,0.86774 -5.5013,2.3363c-1.4547,1.4685 -2.2713,3.4484 -2.2732,5.5119c0.0054,0.0589 0.0054,0.1182 0,0.1771c-0.0484,0.165 -2.9401,17.2339 9.0426,21.8503c0.2193,0.085 0.4019,0.2436 0.5163,0.4485c0.1144,0.2048 0.1534,0.4431 0.1103,0.6736c-0.0431,0.2305 -0.1656,0.4387 -0.3463,0.5888c-0.1808,0.15 -0.4085,0.2325 -0.6438,0.233l0.0041,0.0041z" fill="#336633" id="svg_3"/>
   <path d="m67.6047,15.451c-0.214,-0.0001 -0.4225,-0.068 -0.5952,-0.1939c-0.1728,-0.1259 -0.301,-0.3032 -0.366,-0.5064c-0.8845,-2.7489 -4.0387,-5.80767 -7.1525,-5.80767c-0.2678,0 -0.5246,-0.10601 -0.714,-0.2947c-0.1893,-0.1887 -0.2957,-0.44463 -0.2957,-0.71148c0,-0.26686 0.1064,-0.52279 0.2957,-0.71148c0.1894,-0.1887 0.4462,-0.29471 0.714,-0.29471c3.2309,0 7.6412,2.75292 9.0749,7.20424c0.049,0.1511 0.0615,0.3115 0.0365,0.4683c-0.0251,0.1568 -0.087,0.3054 -0.1808,0.4337c-0.0937,0.1284 -0.2166,0.2328 -0.3586,0.3048c-0.142,0.072 -0.299,0.1094 -0.4583,0.1093z" fill="#336633" id="svg_4"/>
   <path d="m59.0348,40.7747c-0.2137,0.0001 -0.4219,-0.0674 -0.5947,-0.1928c-0.1727,-0.1253 -0.3011,-0.3021 -0.3666,-0.5047c-0.0656,-0.2027 -0.0649,-0.4209 0.0019,-0.6232c0.0668,-0.2023 0.1962,-0.3782 0.3697,-0.5025c7.2697,-5.2322 8.2147,-13.7244 8.1299,-18.3206c-0.0048,-0.2669 0.0969,-0.5247 0.2829,-0.7168c0.1859,-0.1921 0.4408,-0.3027 0.7086,-0.3075c0.2678,-0.0048 0.5265,0.0966 0.7193,0.2819c0.1927,0.1853 0.3037,0.4393 0.3085,0.7062c0.0929,4.9906 -0.945,14.2234 -8.9658,19.9908c-0.1728,0.1241 -0.3807,0.1904 -0.5937,0.1892z" fill="#336633" id="svg_5"/>
   <path d="m52.2334,68.9997c-2.4717,0 -2.8554,-4.2621 -3.441,-10.7178c-0.5169,-5.7433 -1.3004,-14.4126 -4.1638,-14.4126c-2.6858,0 -3.231,7.804 -3.6349,13.503c-0.4765,6.7575 -0.8077,11.6355 -3.7519,11.6355c-5.4805,0 -10.4157,-19.2744 -10.9407,-31.7954c-0.0113,-0.2668 0.0843,-0.5272 0.2657,-0.7238c0.1814,-0.1967 0.4337,-0.3134 0.7015,-0.3246c0.2678,-0.0112 0.5291,0.084 0.7264,0.2648c0.1973,0.1808 0.3144,0.4322 0.3257,0.6991c0.3553,6.828 1.5517,13.5866 3.5621,20.1237c2.4232,7.6832 4.5597,9.7116 5.3593,9.7116c0,0 0.5291,-0.1449 0.9814,-2.4349c0.3862,-2.4274 0.6384,-4.8741 0.7553,-7.3291c0.5331,-7.5584 1.0823,-15.3785 5.6541,-15.3785c4.7091,0 5.4562,8.2628 6.1792,16.2559c0.2948,3.248 0.735,8.126 1.5023,8.8786c0.6058,-0.1288 3.7237,-2.0124 8.3601,-26.0602c0.0228,-0.1317 0.0718,-0.2576 0.1439,-0.3702c0.0722,-0.1127 0.1662,-0.2099 0.2765,-0.286c0.1103,-0.0761 0.2347,-0.1295 0.366,-0.1571c0.1312,-0.0276 0.2667,-0.0289 0.3984,-0.0037c0.1317,0.0251 0.2572,0.0761 0.3689,0.1501c0.1117,0.074 0.2075,0.1694 0.2818,0.2807c0.0743,0.1113 0.1257,0.2362 0.151,0.3675c0.0253,0.1313 0.0241,0.2663 -0.0035,0.3971c-4.7455,24.579 -8.0572,27.7263 -10.4238,27.7263z" fill="#336633" id="svg_6"/>
   <path d="m17.45245,9.18444l6.71635,-1.24365l-6.71635,-1.24766l-1.24795,-6.69313l-1.25199,6.69313l-6.71631,1.24766l6.71631,1.24365l1.25199,6.69316l1.24795,-6.69316z" fill="#336633" id="svg_7"/>
   <path d="m34.4717,31.2321l4.6525,-0.8653l-4.6525,-0.8613l-0.8643,-4.6325l-0.8643,4.6325l-4.6485,0.8613l4.6485,0.8653l0.8643,4.6325l0.8643,-4.6325z" fill="#336633" id="svg_8"/>
   <path d="m58.1946,32.0609c-0.2334,0.0009 -0.46,-0.0787 -0.6412,-0.2255c-0.1811,-0.1467 -0.3056,-0.3515 -0.3523,-0.5795l-2.2294,-11.9534l-12.0029,-2.2378c-0.2328,-0.042 -0.4434,-0.1641 -0.595,-0.3451c-0.1517,-0.1809 -0.2348,-0.4092 -0.2348,-0.645c0,-0.2357 0.0831,-0.464 0.2348,-0.645c0.1516,-0.1809 0.3622,-0.303 0.595,-0.345l12.0029,-2.2056l2.2294,-11.95345c0.0421,-0.23199 0.1647,-0.44187 0.3463,-0.593c0.1816,-0.15113 0.4106,-0.23392 0.6472,-0.23392c0.2366,0 0.4657,0.08279 0.6472,0.23392c0.1816,0.15113 0.3042,0.36101 0.3463,0.593l2.2294,11.95345l11.9948,2.2217c0.2328,0.042 0.4434,0.1641 0.5951,0.345c0.1516,0.181 0.2347,0.4093 0.2347,0.645c0,0.2358 -0.0831,0.4641 -0.2347,0.645c-0.1517,0.181 -0.3623,0.3031 -0.5951,0.3451l-11.9948,2.2217l-2.2294,11.9534c-0.0467,0.228 -0.1712,0.4328 -0.3523,0.5795c-0.1812,0.1468 -0.4077,0.2264 -0.6412,0.2255zm-9.5111,-15.9863l7.3383,1.3604c0.2005,0.0372 0.3849,0.134 0.5291,0.2777c0.1442,0.1437 0.2413,0.3275 0.2786,0.5272l1.3651,7.313l1.3651,-7.313c0.0373,-0.1997 0.1345,-0.3835 0.2786,-0.5272c0.1442,-0.1437 0.3287,-0.2405 0.5291,-0.2777l7.3383,-1.3604l-7.3383,-1.3603c-0.2004,-0.0372 -0.3849,-0.134 -0.5291,-0.2777c-0.1441,-0.1437 -0.2413,-0.3275 -0.2786,-0.5273l-1.3651,-7.31291l-1.3651,7.31291c-0.0373,0.1998 -0.1344,0.3836 -0.2786,0.5273c-0.1442,0.1437 -0.3286,0.2405 -0.5291,0.2777l-7.3383,1.3603z" fill="#336633" id="svg_9"/>
  </g>
 </g>
</svg>