<svg width="79" height="60" xmlns="http://www.w3.org/2000/svg">
 <defs>
  <clipPath id="clip0">
   <rect id="svg_1" fill="white" height="60" width="79"/>
  </clipPath>
 </defs>
 <g>
  <title>Layer 1</title>
  <g id="svg_2" clip-path="url(#clip0)">
   <path id="svg_3" fill="#336633" d="m61.56472,28.8717c0.1946,0.1946 0.1946,0.5059 0,0.7004c-0.9338,1.0506 -2.0233,2.0623 -3.3074,2.9572c-0.428,0.3113 -1.0506,0.1946 -1.3618,-0.2334c-0.3113,-0.4281 -0.1946,-1.0117 0.2334,-1.323c1.1673,-0.856 2.179,-1.751 2.9961,-2.7626c0.1946,-0.2335 0.5837,-0.2335 0.7782,0l0.6615,0.6614z"/>
   <path id="svg_4" fill="#336633" d="m63.86052,3.89105l-1.5565,0c-0.1167,0 -0.1945,-0.03891 -0.2723,-0.11673c-1.323,-1.12841 -2.9961,-1.82879 -4.8638,-1.82879c-4.0856,0.89494 -8.2491,1.36186 -12.4514,1.32295c-4.5136,-0.03891 -9.0272,-0.46692 -13.42413,-1.32295c-4.20233,0.07782 -7.54863,3.50194 -7.47081,7.74319c0,0 0,0 0,0.03891c-0.42802,2.99607 -0.42802,6.03117 0,9.02727c0.97276,6.1478 3.89105,10.2334 8.71594,12.1011c0.5058,0.1946 0.7393,0.7782 0.5448,1.2452c-0.1557,0.3891 -0.5059,0.6225 -0.895,0.6225c-0.1167,0 -0.2334,-0.0389 -0.3502,-0.0778c-1.36185,-0.5447 -2.56807,-1.2062 -3.57974,-1.9844c-0.7393,-0.5448 -1.40078,-1.1673 -1.98444,-1.7899c-6.18677,-6.8093 -4.59144,-18.2879 -4.39689,-19.41635c0.03891,-5.25292 4.28016,-9.45525 9.53308,-9.45525c0.07782,0 0.11673,0 0.19459,0c4.319,0.85603 8.7548,1.28405 13.1517,1.32296c4.0467,0 8.0934,-0.42802 12.0623,-1.28405c0.0778,-0.03891 0.1556,-0.03891 0.2723,-0.03891c2.8405,0 5.3697,1.24514 7.1207,3.19066c0.2334,0.27238 0.0389,0.70039 -0.3502,0.70039z"/>
   <path id="svg_5" fill="#336633" d="m51.17572,59.9995c-2.3735,0 -2.7626,-4.1245 -3.3074,-10.3502c-0.5058,-5.5642 -1.2451,-13.9299 -4.0077,-13.9299c-2.607,0 -3.1129,7.5486 -3.502,13.035c-0.4669,6.537 -0.7782,11.2451 -3.6187,11.2451c-5.29179,0 -10.03888,-18.6381 -10.54471,-30.7393c-0.03891,-0.5447 0.3891,-0.9727 0.93385,-1.0116c0.54475,-0.039 0.97276,0.3891 1.01167,0.9338c0.3502,6.6148 1.4786,13.1518 3.42409,19.4553c2.3347,7.4319 4.3969,9.3774 5.1751,9.3774c0,0 0.5059,-0.1557 0.9339,-2.3346c0.3891,-2.3347 0.6226,-4.7082 0.7393,-7.0818c0.5058,-7.3151 1.0506,-14.8638 5.4475,-14.8638c4.5525,0 5.2529,7.9767 5.9533,15.7199c0.2723,3.1517 0.7004,7.8599 1.4397,8.5992c0.5836,-0.1167 3.5797,-1.9455 8.0544,-25.214c0.0778,-0.5448 0.5837,-0.8949 1.1284,-0.7782c0.5448,0.0778 0.895,0.5836 0.7782,1.1284l0,0.0389c-4.5525,23.7354 -7.7821,26.7704 -10.0389,26.7704z"/>
   <path id="svg_6" fill="#336633" d="m78.56862,11.5166l-27.6653,0l-0.1557,0.3891c-0.1556,0.3891 -0.1167,0.856 0.1557,1.2062l0.3113,0.3502l12.5291,15.0584l0.2724,0.3113c0.3113,0.3891 0.895,0.3891 1.2062,0l0.2335,-0.3113l12.5292,-15.0973l0.5058,-0.5447c0.2724,-0.3502 0.3502,-0.7782 0.1557,-1.2063l-0.0779,-0.1556zm-10.9338,11.4008l-2.9961,3.6187l-2.607,-3.1129l-7.2763,-8.7548c-0.3891,-0.467 -0.0389,-1.2063 0.5837,-1.2063l18.5992,0c0.6226,0 0.9728,0.7393 0.5836,1.2063l-6.8871,8.249z"/>
   <path id="svg_7" fill="#336633" d="m78.56872,11.5173l-2.4125,-5.60311c-0.1167,-0.31128 -0.428,-0.46692 -0.7393,-0.46692l-21.3618,0c-0.3113,0 -0.6226,0.19455 -0.7393,0.46692l-2.4125,5.56421l-0.2724,0.5837c-0.1167,0.2723 -0.0778,0.5836 0.1168,0.8171l0.428,0.5058l26.7704,0l0.6226,-0.7393c0.1946,-0.2335 0.2335,-0.5447 0.1167,-0.8171l-0.1167,-0.3113zm-24.1634,0c-0.6615,0 -1.0895,-0.6615 -0.8171,-1.2451l0.856,-2.02338l0.3502,-0.85603l19.8443,0l0.3891,0.89494l0.8561,1.94557c0.2724,0.5836 -0.1946,1.2451 -0.8171,1.2451l-20.6615,0.0389z"/>
   <path id="svg_8" fill="#336633" d="m76.07842,7.00353l-1.0117,1.28405l-2.4902,3.19062l-1.1285,1.4397l-0.3891,0.5059l-0.3891,0.5058l-0.5058,-0.5058l-0.7004,-0.7393l-1.1673,-1.2063l-2.8405,-2.95716c-0.3502,-0.3891 -0.9727,-0.35019 -1.3229,0.03891l-2.607,2.91825l-1.0506,1.2063l-0.6615,0.7393l-0.4669,0.5058l-0.428,-0.5058l-0.4281,-0.467l-1.2451,-1.4786l-2.8016,-3.26844l-1.0116,-1.16732l1.4786,-1.24513l1.3618,1.59533l2.4125,2.80156c0.3502,0.428 1.0117,0.428 1.3619,0l2.5291,-2.84047l1.751,-1.94553l0.8561,0l1.8677,1.94553l2.7237,2.84047c0.3891,0.3891 1.0117,0.3502 1.3619,-0.0778l2.179,-2.80158l1.2062,-1.55642l1.5564,1.24513z"/>
   <path id="svg_9" fill="#336633" d="m71.48712,12.84l-0.0389,0.1168l-0.1945,0.5058l-3.6187,9.4553l-2.1401,5.642l-0.2335,0.2724c-0.3112,0.3891 -0.8949,0.3891 -1.2451,0l-0.2335,-0.3113l-1.712,-5.1362l-3.4241,-9.9222l-0.1557,-0.4669l-0.0778,-0.1946l1.8288,-0.6225l0.1945,0.5447l0.2724,0.7393l3.2296,9.6109c0.2334,0.7004 1.2451,0.7393 1.5175,0.0389l3.6965,-9.6498l0.2724,-0.7393l0.2334,-0.5837l1.8288,0.7004z"/>
  </g>
 </g>
</svg>